<svg width="19" height="34" viewBox="0 0 19 34" fill="none" xmlns="http://www.w3.org/2000/svg">
<path d="M10.0393 32.6189L17.7206 22.7549C18.1893 22.1531 18.1838 21.1814 17.7083 20.5849C17.2328 19.9883 16.4674 19.9927 15.9986 20.5946L10.3662 27.8275L10.2175 1.60121C10.2127 0.753859 9.66747 0.0698893 8.99986 0.0736748C8.33235 0.0774598 7.79484 0.767568 7.79965 1.61492L7.94836 27.8412L2.23424 20.6729C1.75869 20.0763 0.993298 20.0807 0.524542 20.6826C0.290357 20.9835 0.174401 21.3769 0.176628 21.7696C0.178855 22.1623 0.299264 22.5543 0.536847 22.8526L8.32958 32.6286C8.80513 33.2252 9.57052 33.2208 10.0393 32.6189Z" fill="white"/>
</svg>
