<svg width="27" height="34" viewBox="0 0 27 34" fill="none" xmlns="http://www.w3.org/2000/svg">
<g clip-path="url(#clip0)">
<path d="M12.1468 0.504801L4.44884 10.3558C3.97916 10.9569 3.98304 11.9286 4.45749 12.5258C4.93204 13.1232 5.69743 13.1202 6.1672 12.519L11.8118 5.29564L11.9164 31.5221C11.9198 32.3695 12.4638 33.0544 13.1314 33.0517C13.799 33.0491 14.3376 32.3599 14.3342 31.5125L14.2297 5.286L19.9317 12.4639C20.4063 13.0613 21.1717 13.0582 21.6414 12.4571C21.8761 12.1566 21.9927 11.7633 21.9912 11.3707C21.9896 10.978 21.8699 10.5858 21.6328 10.2871L13.8565 0.497984C13.382 -0.099406 12.6166 -0.096354 12.1468 0.504801Z" fill="white"/>
</g>
<defs>
<clipPath id="clip0">
<rect x="0.131592" y="33.1035" width="33" height="26" transform="rotate(-90.2285 0.131592 33.1035)" fill="white"/>
</clipPath>
</defs>
</svg>
