<svg width="25" height="21" viewBox="0 0 25 21" fill="none" xmlns="http://www.w3.org/2000/svg">
<path d="M6.36834 3.68004H24.3546C24.7111 3.68004 25 3.39105 25 3.0346C25 2.67814 24.7111 2.38916 24.3546 2.38916H6.36834C6.01188 2.38916 5.7229 2.67814 5.7229 3.0346C5.7229 3.39105 6.01188 3.68004 6.36834 3.68004Z" fill="white"/>
<path d="M24.3546 9.87598H6.36834C6.01188 9.87598 5.7229 10.165 5.7229 10.5214C5.7229 10.8779 6.01188 11.1669 6.36834 11.1669H24.3546C24.7111 11.1669 25 10.8779 25 10.5214C25 10.165 24.7111 9.87598 24.3546 9.87598Z" fill="white"/>
<path d="M24.3546 17.3628H6.36834C6.01188 17.3628 5.7229 17.6518 5.7229 18.0082C5.7229 18.3647 6.01188 18.6537 6.36834 18.6537H24.3546C24.7111 18.6537 25 18.3647 25 18.0082C25 17.6518 24.7111 17.3628 24.3546 17.3628Z" fill="white"/>
<path d="M2.23752 0.796875C1.00379 0.796875 0 1.80066 0 3.0344C0 4.26813 1.00379 5.27192 2.23752 5.27192C3.47126 5.27192 4.47504 4.26813 4.47504 3.0344C4.47504 1.80066 3.47126 0.796875 2.23752 0.796875ZM2.23752 3.98104C1.71472 3.98104 1.29088 3.5572 1.29088 3.0344C1.29088 2.51159 1.71472 2.08775 2.23752 2.08775C2.76033 2.08775 3.18416 2.51159 3.18416 3.0344C3.18416 3.5572 2.76033 3.98104 2.23752 3.98104Z" fill="white"/>
<path d="M2.23752 8.28369C1.00379 8.28369 0 9.28748 0 10.5212C0 11.755 1.00379 12.7587 2.23752 12.7587C3.47126 12.7587 4.47504 11.755 4.47504 10.5212C4.47504 9.28748 3.47126 8.28369 2.23752 8.28369ZM2.23752 11.4679C1.71472 11.4679 1.29088 11.044 1.29088 10.5212C1.29088 9.99841 1.71472 9.57457 2.23752 9.57457C2.76033 9.57457 3.18416 9.99841 3.18416 10.5212C3.18416 11.044 2.76033 11.4679 2.23752 11.4679Z" fill="white"/>
<path d="M2.23752 15.728C1.00379 15.728 0 16.7318 0 17.9655C0 19.1993 1.00379 20.2031 2.23752 20.2031C3.47126 20.2031 4.47504 19.1993 4.47504 17.9655C4.47504 16.7318 3.47126 15.728 2.23752 15.728ZM2.23752 18.9122C1.71472 18.9122 1.29088 18.4884 1.29088 17.9655C1.29088 17.4427 1.71472 17.0189 2.23752 17.0189C2.76033 17.0189 3.18416 17.4427 3.18416 17.9655C3.18416 18.4884 2.76033 18.9122 2.23752 18.9122Z" fill="white"/>
</svg>
