<svg width="350" height="155" viewBox="0 0 350 155" fill="none" xmlns="http://www.w3.org/2000/svg">
<path d="M261.523 148.5V131.438H267.5C269.57 131.438 271.141 131.836 272.211 132.633C273.281 133.422 273.816 134.582 273.816 136.113C273.816 136.949 273.602 137.688 273.172 138.328C272.742 138.961 272.145 139.426 271.379 139.723C272.254 139.941 272.941 140.383 273.441 141.047C273.949 141.711 274.203 142.523 274.203 143.484C274.203 145.125 273.68 146.367 272.633 147.211C271.586 148.055 270.094 148.484 268.156 148.5H261.523ZM265.039 141.07V145.676H268.051C268.879 145.676 269.523 145.48 269.984 145.09C270.453 144.691 270.688 144.145 270.688 143.449C270.688 141.887 269.879 141.094 268.262 141.07H265.039ZM265.039 138.586H267.641C269.414 138.555 270.301 137.848 270.301 136.465C270.301 135.691 270.074 135.137 269.621 134.801C269.176 134.457 268.469 134.285 267.5 134.285H265.039V138.586ZM284.223 147.211C283.387 148.227 282.23 148.734 280.754 148.734C279.395 148.734 278.355 148.344 277.637 147.562C276.926 146.781 276.562 145.637 276.547 144.129V135.82H279.934V144.012C279.934 145.332 280.535 145.992 281.738 145.992C282.887 145.992 283.676 145.594 284.105 144.797V135.82H287.504V148.5H284.316L284.223 147.211ZM293.633 148.5H290.234V130.5H293.633V148.5ZM295.906 142.066C295.906 140.09 296.348 138.516 297.23 137.344C298.121 136.172 299.336 135.586 300.875 135.586C302.109 135.586 303.129 136.047 303.934 136.969V130.5H307.332V148.5H304.273L304.109 147.152C303.266 148.207 302.18 148.734 300.852 148.734C299.359 148.734 298.16 148.148 297.254 146.977C296.355 145.797 295.906 144.16 295.906 142.066ZM299.293 142.312C299.293 143.5 299.5 144.41 299.914 145.043C300.328 145.676 300.93 145.992 301.719 145.992C302.766 145.992 303.504 145.551 303.934 144.668V139.664C303.512 138.781 302.781 138.34 301.742 138.34C300.109 138.34 299.293 139.664 299.293 142.312ZM313.531 148.5H310.133V135.82H313.531V148.5ZM309.934 132.539C309.934 132.031 310.102 131.613 310.438 131.285C310.781 130.957 311.246 130.793 311.832 130.793C312.41 130.793 312.871 130.957 313.215 131.285C313.559 131.613 313.73 132.031 313.73 132.539C313.73 133.055 313.555 133.477 313.203 133.805C312.859 134.133 312.402 134.297 311.832 134.297C311.262 134.297 310.801 134.133 310.449 133.805C310.105 133.477 309.934 133.055 309.934 132.539ZM319.449 135.82L319.555 137.285C320.461 136.152 321.676 135.586 323.199 135.586C324.543 135.586 325.543 135.98 326.199 136.77C326.855 137.559 327.191 138.738 327.207 140.309V148.5H323.82V140.391C323.82 139.672 323.664 139.152 323.352 138.832C323.039 138.504 322.52 138.34 321.793 138.34C320.84 138.34 320.125 138.746 319.648 139.559V148.5H316.262V135.82H319.449ZM329.293 142.066C329.293 140.121 329.754 138.555 330.676 137.367C331.605 136.18 332.855 135.586 334.426 135.586C335.816 135.586 336.898 136.062 337.672 137.016L337.812 135.82H340.883V148.078C340.883 149.188 340.629 150.152 340.121 150.973C339.621 151.793 338.914 152.418 338 152.848C337.086 153.277 336.016 153.492 334.789 153.492C333.859 153.492 332.953 153.305 332.07 152.93C331.188 152.562 330.52 152.086 330.066 151.5L331.566 149.438C332.41 150.383 333.434 150.855 334.637 150.855C335.535 150.855 336.234 150.613 336.734 150.129C337.234 149.652 337.484 148.973 337.484 148.09V147.41C336.703 148.293 335.676 148.734 334.402 148.734C332.879 148.734 331.645 148.141 330.699 146.953C329.762 145.758 329.293 144.176 329.293 142.207V142.066ZM332.68 142.312C332.68 143.461 332.91 144.363 333.371 145.02C333.832 145.668 334.465 145.992 335.27 145.992C336.301 145.992 337.039 145.605 337.484 144.832V139.5C337.031 138.727 336.301 138.34 335.293 138.34C334.48 138.34 333.84 138.672 333.371 139.336C332.91 140 332.68 140.992 332.68 142.312Z" fill="#949494"/>
<path d="M20.1562 105.203H50.0156V116.5H6.09375V48.25H20.1562V105.203ZM80.5781 117.438C73.1406 117.438 67.0781 115.156 62.3906 110.594C57.7344 106.031 55.4062 99.9531 55.4062 92.3594V91.0469C55.4062 85.9531 56.3906 81.4062 58.3594 77.4062C60.3281 73.375 63.1094 70.2812 66.7031 68.125C70.3281 65.9375 74.4531 64.8438 79.0781 64.8438C86.0156 64.8438 91.4688 67.0312 95.4375 71.4062C99.4375 75.7812 101.438 81.9844 101.438 90.0156V95.5469H69.1406C69.5781 98.8594 70.8906 101.516 73.0781 103.516C75.2969 105.516 78.0938 106.516 81.4688 106.516C86.6875 106.516 90.7656 104.625 93.7031 100.844L100.359 108.297C98.3281 111.172 95.5781 113.422 92.1094 115.047C88.6406 116.641 84.7969 117.438 80.5781 117.438ZM79.0312 75.8125C76.3438 75.8125 74.1562 76.7188 72.4688 78.5312C70.8125 80.3438 69.75 82.9375 69.2812 86.3125H88.125V85.2344C88.0625 82.2344 87.25 79.9219 85.6875 78.2969C84.125 76.6406 81.9062 75.8125 79.0312 75.8125ZM128.484 80.9219L137.016 65.7812H151.5L137.062 90.625L152.109 116.5H137.578L128.531 100.562L119.531 116.5H104.953L120 90.625L105.609 65.7812H120.141L128.484 80.9219Z" fill="white"/>
<path d="M184.172 91.5156H172.969V116.5H158.906V48.25H184.266C192.328 48.25 198.547 50.0469 202.922 53.6406C207.297 57.2344 209.484 62.3125 209.484 68.875C209.484 73.5312 208.469 77.4219 206.438 80.5469C204.438 83.6406 201.391 86.1094 197.297 87.9531L212.062 115.844V116.5H196.969L184.172 91.5156ZM172.969 80.125H184.312C187.844 80.125 190.578 79.2344 192.516 77.4531C194.453 75.6406 195.422 73.1562 195.422 70C195.422 66.7812 194.5 64.25 192.656 62.4062C190.844 60.5625 188.047 59.6406 184.266 59.6406H172.969V80.125ZM242.672 117.438C235.234 117.438 229.172 115.156 224.484 110.594C219.828 106.031 217.5 99.9531 217.5 92.3594V91.0469C217.5 85.9531 218.484 81.4062 220.453 77.4062C222.422 73.375 225.203 70.2812 228.797 68.125C232.422 65.9375 236.547 64.8438 241.172 64.8438C248.109 64.8438 253.562 67.0312 257.531 71.4062C261.531 75.7812 263.531 81.9844 263.531 90.0156V95.5469H231.234C231.672 98.8594 232.984 101.516 235.172 103.516C237.391 105.516 240.188 106.516 243.562 106.516C248.781 106.516 252.859 104.625 255.797 100.844L262.453 108.297C260.422 111.172 257.672 113.422 254.203 115.047C250.734 116.641 246.891 117.438 242.672 117.438ZM241.125 75.8125C238.438 75.8125 236.25 76.7188 234.562 78.5312C232.906 80.3438 231.844 82.9375 231.375 86.3125H250.219V85.2344C250.156 82.2344 249.344 79.9219 247.781 78.2969C246.219 76.6406 244 75.8125 241.125 75.8125ZM283.969 65.7812L284.391 71.4531C287.984 67.0469 292.844 64.8438 298.969 64.8438C305.5 64.8438 309.984 67.4219 312.422 72.5781C315.984 67.4219 321.062 64.8438 327.656 64.8438C333.156 64.8438 337.25 66.4531 339.938 69.6719C342.625 72.8594 343.969 77.6719 343.969 84.1094V116.5H330.375V84.1562C330.375 81.2812 329.812 79.1875 328.688 77.875C327.562 76.5312 325.578 75.8594 322.734 75.8594C318.672 75.8594 315.859 77.7969 314.297 81.6719L314.344 116.5H300.797V84.2031C300.797 81.2656 300.219 79.1406 299.062 77.8281C297.906 76.5156 295.938 75.8594 293.156 75.8594C289.312 75.8594 286.531 77.4531 284.812 80.6406V116.5H271.266V65.7812H283.969Z" fill="#949494"/>
<path d="M20.1562 105.203H19.1562V106.203H20.1562V105.203ZM50.0156 105.203H51.0156V104.203H50.0156V105.203ZM50.0156 116.5V117.5H51.0156V116.5H50.0156ZM6.09375 116.5H5.09375V117.5H6.09375V116.5ZM6.09375 48.25V47.25H5.09375V48.25H6.09375ZM20.1562 48.25H21.1562V47.25H20.1562V48.25ZM20.1562 106.203H50.0156V104.203H20.1562V106.203ZM49.0156 105.203V116.5H51.0156V105.203H49.0156ZM50.0156 115.5H6.09375V117.5H50.0156V115.5ZM7.09375 116.5V48.25H5.09375V116.5H7.09375ZM6.09375 49.25H20.1562V47.25H6.09375V49.25ZM19.1562 48.25V105.203H21.1562V48.25H19.1562ZM62.3906 110.594L61.6907 111.308L61.6931 111.31L62.3906 110.594ZM58.3594 77.4062L59.2566 77.8478L59.2579 77.8451L58.3594 77.4062ZM66.7031 68.125L67.2176 68.9825L67.2198 68.9812L66.7031 68.125ZM95.4375 71.4062L94.6968 72.0781L94.6995 72.081L95.4375 71.4062ZM101.438 95.5469V96.5469H102.438V95.5469H101.438ZM69.1406 95.5469V94.5469H67.9999L68.1492 95.6778L69.1406 95.5469ZM73.0781 103.516L72.4033 104.254L72.4086 104.258L73.0781 103.516ZM93.7031 100.844L94.449 100.178L93.6496 99.2826L92.9134 100.23L93.7031 100.844ZM100.359 108.297L101.176 108.874L101.635 108.224L101.105 107.631L100.359 108.297ZM92.1094 115.047L92.5269 115.956L92.5336 115.952L92.1094 115.047ZM72.4688 78.5312L71.7368 77.8498L71.7305 77.8567L72.4688 78.5312ZM69.2812 86.3125L68.2908 86.1749L68.1328 87.3125H69.2812V86.3125ZM88.125 86.3125V87.3125H89.125V86.3125H88.125ZM88.125 85.2344H89.125V85.224L89.1248 85.2135L88.125 85.2344ZM85.6875 78.2969L84.9601 78.9831L84.9667 78.99L85.6875 78.2969ZM80.5781 116.438C73.3625 116.438 67.5629 114.233 63.0881 109.877L61.6931 111.31C66.5933 116.08 72.9188 118.438 80.5781 118.438V116.438ZM63.0905 109.879C58.658 105.536 56.4062 99.7324 56.4062 92.3594H54.4062C54.4062 100.174 56.8108 106.526 61.6907 111.308L63.0905 109.879ZM56.4062 92.3594V91.0469H54.4062V92.3594H56.4062ZM56.4062 91.0469C56.4062 86.0844 57.3645 81.6921 59.2566 77.8478L57.4622 76.9647C55.4167 81.1204 54.4062 85.8219 54.4062 91.0469H56.4062ZM59.2579 77.8451C61.1481 73.9748 63.8015 71.0322 67.2176 68.9825L66.1886 67.2675C62.4173 69.5303 59.5082 72.7752 57.4608 76.9674L59.2579 77.8451ZM67.2198 68.9812C70.6746 66.8964 74.6178 65.8438 79.0781 65.8438V63.8438C74.2884 63.8438 69.9816 64.9786 66.1865 67.2688L67.2198 68.9812ZM79.0781 65.8438C85.7874 65.8438 90.9511 67.9489 94.6968 72.0781L96.1782 70.7344C91.9864 66.1136 86.2439 63.8438 79.0781 63.8438V65.8438ZM94.6995 72.081C98.4788 76.2147 100.438 82.1443 100.438 90.0156H102.438C102.438 81.8244 100.396 75.3478 96.1755 70.7315L94.6995 72.081ZM100.438 90.0156V95.5469H102.438V90.0156H100.438ZM101.438 94.5469H69.1406V96.5469H101.438V94.5469ZM68.1492 95.6778C68.6134 99.192 70.02 102.075 72.4034 104.254L73.7529 102.778C71.7612 100.957 70.5429 98.5267 70.132 95.4159L68.1492 95.6778ZM72.4086 104.258C74.8351 106.446 77.8809 107.516 81.4688 107.516V105.516C78.3066 105.516 75.7586 104.586 73.7477 102.773L72.4086 104.258ZM81.4688 107.516C86.9644 107.516 91.3471 105.506 94.4928 101.457L92.9134 100.23C90.1841 103.744 86.4106 105.516 81.4688 105.516V107.516ZM92.9573 101.51L99.6135 108.963L101.105 107.631L94.449 100.178L92.9573 101.51ZM99.5427 107.72C97.6202 110.441 95.011 112.583 91.6852 114.141L92.5336 115.952C96.1452 114.261 99.036 111.903 101.176 108.874L99.5427 107.72ZM91.6919 114.138C88.3673 115.666 84.668 116.438 80.5781 116.438V118.438C84.9257 118.438 88.914 117.616 92.5269 115.956L91.6919 114.138ZM79.0312 74.8125C76.0925 74.8125 73.6308 75.8156 71.7369 77.8498L73.2006 79.2127C74.6817 77.6219 76.595 76.8125 79.0312 76.8125V74.8125ZM71.7305 77.8567C69.8942 79.8663 68.7769 82.6749 68.2908 86.1749L70.2717 86.4501C70.7231 83.2001 71.7308 80.8212 73.207 79.2058L71.7305 77.8567ZM69.2812 87.3125H88.125V85.3125H69.2812V87.3125ZM89.125 86.3125V85.2344H87.125V86.3125H89.125ZM89.1248 85.2135C89.0588 82.0473 88.196 79.463 86.4083 77.6038L84.9667 78.99C86.304 80.3808 87.0662 82.4215 87.1252 85.2552L89.1248 85.2135ZM86.4149 77.6107C84.6165 75.7044 82.1047 74.8125 79.0312 74.8125V76.8125C81.7078 76.8125 83.6335 77.5769 84.9601 78.9831L86.4149 77.6107ZM128.484 80.9219L127.609 81.4045L128.475 82.9762L129.356 81.4128L128.484 80.9219ZM137.016 65.7812V64.7812H136.431L136.144 65.2903L137.016 65.7812ZM151.5 65.7812L152.365 66.2837L153.238 64.7812H151.5V65.7812ZM137.062 90.625L136.198 90.1225L135.906 90.6252L136.198 91.1277L137.062 90.625ZM152.109 116.5V117.5H153.848L152.974 115.997L152.109 116.5ZM137.578 116.5L136.708 116.994L136.996 117.5H137.578V116.5ZM128.531 100.562L129.401 100.069L128.529 98.5328L127.66 100.071L128.531 100.562ZM119.531 116.5V117.5H120.115L120.402 116.992L119.531 116.5ZM104.953 116.5L104.089 115.997L103.215 117.5H104.953V116.5ZM120 90.625L120.864 91.1277L121.156 90.626L120.865 90.1238L120 90.625ZM105.609 65.7812V64.7812H103.874L104.744 66.2825L105.609 65.7812ZM120.141 65.7812L121.016 65.2986L120.731 64.7812H120.141V65.7812ZM129.356 81.4128L137.887 66.2722L136.144 65.2903L127.613 80.431L129.356 81.4128ZM137.016 66.7812H151.5V64.7812H137.016V66.7812ZM150.635 65.2788L136.198 90.1225L137.927 91.1275L152.365 66.2837L150.635 65.2788ZM136.198 91.1277L151.245 117.003L152.974 115.997L137.927 90.1223L136.198 91.1277ZM152.109 115.5H137.578V117.5H152.109V115.5ZM138.448 116.006L129.401 100.069L127.662 101.056L136.708 116.994L138.448 116.006ZM127.66 100.071L118.66 116.008L120.402 116.992L129.402 101.054L127.66 100.071ZM119.531 115.5H104.953V117.5H119.531V115.5ZM105.818 117.003L120.864 91.1277L119.136 90.1223L104.089 115.997L105.818 117.003ZM120.865 90.1238L106.475 65.28L104.744 66.2825L119.135 91.1262L120.865 90.1238ZM105.609 66.7812H120.141V64.7812H105.609V66.7812ZM119.265 66.2639L127.609 81.4045L129.36 80.4392L121.016 65.2986L119.265 66.2639ZM184.172 91.5156L185.062 91.0597L184.783 90.5156H184.172V91.5156ZM172.969 91.5156V90.5156H171.969V91.5156H172.969ZM172.969 116.5V117.5H173.969V116.5H172.969ZM158.906 116.5H157.906V117.5H158.906V116.5ZM158.906 48.25V47.25H157.906V48.25H158.906ZM206.438 80.5469L205.599 80.0019L205.598 80.004L206.438 80.5469ZM197.297 87.9531L196.886 87.0413L195.914 87.479L196.413 88.421L197.297 87.9531ZM212.062 115.844H213.062V115.595L212.946 115.376L212.062 115.844ZM212.062 116.5V117.5H213.062V116.5H212.062ZM196.969 116.5L196.079 116.956L196.357 117.5H196.969V116.5ZM172.969 80.125H171.969V81.125H172.969V80.125ZM192.516 77.4531L193.192 78.1893L193.199 78.1834L192.516 77.4531ZM192.656 62.4062L191.943 63.1073L191.949 63.1134L192.656 62.4062ZM172.969 59.6406V58.6406H171.969V59.6406H172.969ZM184.172 90.5156H172.969V92.5156H184.172V90.5156ZM171.969 91.5156V116.5H173.969V91.5156H171.969ZM172.969 115.5H158.906V117.5H172.969V115.5ZM159.906 116.5V48.25H157.906V116.5H159.906ZM158.906 49.25H184.266V47.25H158.906V49.25ZM184.266 49.25C192.193 49.25 198.153 51.0178 202.287 54.4134L203.557 52.8679C198.94 49.0759 192.463 47.25 184.266 47.25V49.25ZM202.287 54.4134C206.393 57.7858 208.484 62.5585 208.484 68.875H210.484C210.484 62.0665 208.201 56.683 203.557 52.8679L202.287 54.4134ZM208.484 68.875C208.484 73.386 207.501 77.0753 205.599 80.0019L207.276 81.0919C209.436 77.7685 210.484 73.6765 210.484 68.875H208.484ZM205.598 80.004C203.723 82.9037 200.843 85.2592 196.886 87.0413L197.708 88.8649C201.938 86.9595 205.152 84.3775 207.277 81.0898L205.598 80.004ZM196.413 88.421L211.179 116.312L212.946 115.376L198.181 87.4852L196.413 88.421ZM211.062 115.844V116.5H213.062V115.844H211.062ZM212.062 115.5H196.969V117.5H212.062V115.5ZM197.859 116.044L185.062 91.0597L183.282 91.9715L196.079 116.956L197.859 116.044ZM172.969 81.125H184.312V79.125H172.969V81.125ZM184.312 81.125C188.007 81.125 191.015 80.1912 193.192 78.1893L191.839 76.717C190.141 78.2775 187.68 79.125 184.312 79.125V81.125ZM193.199 78.1834C195.377 76.1461 196.422 73.3761 196.422 70H194.422C194.422 72.9364 193.53 75.1351 191.832 76.7229L193.199 78.1834ZM196.422 70C196.422 66.582 195.437 63.7724 193.363 61.6991L191.949 63.1134C193.563 64.7276 194.422 66.9805 194.422 70H196.422ZM193.369 61.7052C191.297 59.5969 188.191 58.6406 184.266 58.6406V60.6406C187.903 60.6406 190.391 61.5281 191.943 63.1073L193.369 61.7052ZM184.266 58.6406H172.969V60.6406H184.266V58.6406ZM171.969 59.6406V80.125H173.969V59.6406H171.969ZM224.484 110.594L223.784 111.308L223.787 111.31L224.484 110.594ZM220.453 77.4062L221.35 77.8478L221.352 77.8451L220.453 77.4062ZM228.797 68.125L229.311 68.9825L229.314 68.9812L228.797 68.125ZM257.531 71.4062L256.791 72.0781L256.793 72.081L257.531 71.4062ZM263.531 95.5469V96.5469H264.531V95.5469H263.531ZM231.234 95.5469V94.5469H230.094L230.243 95.6778L231.234 95.5469ZM235.172 103.516L234.497 104.254L234.502 104.258L235.172 103.516ZM255.797 100.844L256.543 100.178L255.743 99.2826L255.007 100.23L255.797 100.844ZM262.453 108.297L263.27 108.874L263.729 108.224L263.199 107.631L262.453 108.297ZM254.203 115.047L254.621 115.956L254.627 115.952L254.203 115.047ZM234.562 78.5312L233.831 77.8498L233.824 77.8567L234.562 78.5312ZM231.375 86.3125L230.385 86.1749L230.227 87.3125H231.375V86.3125ZM250.219 86.3125V87.3125H251.219V86.3125H250.219ZM250.219 85.2344H251.219V85.224L251.219 85.2135L250.219 85.2344ZM247.781 78.2969L247.054 78.9831L247.06 78.99L247.781 78.2969ZM242.672 116.438C235.456 116.438 229.657 114.233 225.182 109.877L223.787 111.31C228.687 116.08 235.013 118.438 242.672 118.438V116.438ZM225.184 109.879C220.752 105.536 218.5 99.7324 218.5 92.3594H216.5C216.5 100.174 218.905 106.526 223.784 111.308L225.184 109.879ZM218.5 92.3594V91.0469H216.5V92.3594H218.5ZM218.5 91.0469C218.5 86.0844 219.458 81.6921 221.35 77.8478L219.556 76.9647C217.51 81.1204 216.5 85.8219 216.5 91.0469H218.5ZM221.352 77.8451C223.242 73.9748 225.895 71.0322 229.311 68.9825L228.282 67.2675C224.511 69.5303 221.602 72.7752 219.555 76.9674L221.352 77.8451ZM229.314 68.9812C232.768 66.8964 236.712 65.8438 241.172 65.8438V63.8438C236.382 63.8438 232.075 64.9786 228.28 67.2688L229.314 68.9812ZM241.172 65.8438C247.881 65.8438 253.045 67.9489 256.791 72.0781L258.272 70.7344C254.08 66.1136 248.338 63.8438 241.172 63.8438V65.8438ZM256.793 72.081C260.573 76.2147 262.531 82.1443 262.531 90.0156H264.531C264.531 81.8244 262.49 75.3478 258.269 70.7315L256.793 72.081ZM262.531 90.0156V95.5469H264.531V90.0156H262.531ZM263.531 94.5469H231.234V96.5469H263.531V94.5469ZM230.243 95.6778C230.707 99.192 232.114 102.075 234.497 104.254L235.847 102.778C233.855 100.957 232.637 98.5267 232.226 95.4159L230.243 95.6778ZM234.502 104.258C236.929 106.446 239.975 107.516 243.562 107.516V105.516C240.4 105.516 237.852 104.586 235.841 102.773L234.502 104.258ZM243.562 107.516C249.058 107.516 253.441 105.506 256.587 101.457L255.007 100.23C252.278 103.744 248.504 105.516 243.562 105.516V107.516ZM255.051 101.51L261.707 108.963L263.199 107.631L256.543 100.178L255.051 101.51ZM261.636 107.72C259.714 110.441 257.105 112.583 253.779 114.141L254.627 115.952C258.239 114.261 261.13 111.903 263.27 108.874L261.636 107.72ZM253.786 114.138C250.461 115.666 246.762 116.438 242.672 116.438V118.438C247.019 118.438 251.008 117.616 254.621 115.956L253.786 114.138ZM241.125 74.8125C238.186 74.8125 235.725 75.8156 233.831 77.8498L235.294 79.2127C236.775 77.6219 238.689 76.8125 241.125 76.8125V74.8125ZM233.824 77.8567C231.988 79.8663 230.871 82.6749 230.385 86.1749L232.365 86.4501C232.817 83.2001 233.825 80.8212 235.301 79.2058L233.824 77.8567ZM231.375 87.3125H250.219V85.3125H231.375V87.3125ZM251.219 86.3125V85.2344H249.219V86.3125H251.219ZM251.219 85.2135C251.153 82.0473 250.29 79.463 248.502 77.6038L247.06 78.99C248.398 80.3808 249.16 82.4215 249.219 85.2552L251.219 85.2135ZM248.509 77.6107C246.71 75.7044 244.198 74.8125 241.125 74.8125V76.8125C243.802 76.8125 245.727 77.5769 247.054 78.9831L248.509 77.6107ZM283.969 65.7812L284.966 65.7071L284.897 64.7812H283.969V65.7812ZM284.391 71.4531L283.393 71.5273L283.58 74.0298L285.166 72.0852L284.391 71.4531ZM312.422 72.5781L311.518 73.0055L312.259 74.5732L313.245 73.1466L312.422 72.5781ZM339.938 69.6719L339.17 70.3128L339.173 70.3165L339.938 69.6719ZM343.969 116.5V117.5H344.969V116.5H343.969ZM330.375 116.5H329.375V117.5H330.375V116.5ZM328.688 77.875L327.921 78.517L327.928 78.5258L328.688 77.875ZM314.297 81.6719L313.369 81.2979L313.297 81.4785L313.297 81.6732L314.297 81.6719ZM314.344 116.5V117.5H315.345L315.344 116.499L314.344 116.5ZM300.797 116.5H299.797V117.5H300.797V116.5ZM284.812 80.6406L283.932 80.166L283.812 80.3882V80.6406H284.812ZM284.812 116.5V117.5H285.812V116.5H284.812ZM271.266 116.5H270.266V117.5H271.266V116.5ZM271.266 65.7812V64.7812H270.266V65.7812H271.266ZM282.972 65.8554L283.393 71.5273L285.388 71.3789L284.966 65.7071L282.972 65.8554ZM285.166 72.0852C288.553 67.9316 293.118 65.8438 298.969 65.8438V63.8438C292.57 63.8438 287.416 66.1622 283.616 70.8211L285.166 72.0852ZM298.969 65.8438C302.105 65.8438 304.676 66.4625 306.732 67.6443C308.779 68.8213 310.377 70.5921 311.518 73.0055L313.326 72.1507C312.029 69.4079 310.166 67.3116 307.729 65.9104C305.3 64.5141 302.364 63.8438 298.969 63.8438V65.8438ZM313.245 73.1466C316.609 68.2768 321.371 65.8438 327.656 65.8438V63.8438C320.754 63.8438 315.36 66.5669 311.599 72.0097L313.245 73.1466ZM327.656 65.8438C332.959 65.8438 336.728 67.3879 339.17 70.3128L340.705 69.031C337.772 65.5183 333.354 63.8438 327.656 63.8438V65.8438ZM339.173 70.3165C341.645 73.2481 342.969 77.7854 342.969 84.1094H344.969C344.969 77.5583 343.605 72.4706 340.702 69.0273L339.173 70.3165ZM342.969 84.1094V116.5H344.969V84.1094H342.969ZM343.969 115.5H330.375V117.5H343.969V115.5ZM331.375 116.5V84.1562H329.375V116.5H331.375ZM331.375 84.1562C331.375 81.1891 330.801 78.8047 329.447 77.2242L327.928 78.5258C328.824 79.5703 329.375 81.3734 329.375 84.1562H331.375ZM329.454 77.2331C328.047 75.5527 325.693 74.8594 322.734 74.8594V76.8594C325.463 76.8594 327.078 77.5098 327.921 78.5169L329.454 77.2331ZM322.734 74.8594C320.54 74.8594 318.614 75.3849 317.011 76.489C315.41 77.5917 314.208 79.2194 313.369 81.2979L315.224 82.0458C315.949 80.2493 316.934 78.9708 318.145 78.136C319.355 77.3026 320.867 76.8594 322.734 76.8594V74.8594ZM313.297 81.6732L313.344 116.501L315.344 116.499L315.297 81.6705L313.297 81.6732ZM314.344 115.5H300.797V117.5H314.344V115.5ZM301.797 116.5V84.2031H299.797V116.5H301.797ZM301.797 84.2031C301.797 81.1753 301.208 78.7513 299.813 77.1671L298.312 78.4892C299.229 79.53 299.797 81.356 299.797 84.2031H301.797ZM299.813 77.1671C298.379 75.5395 296.058 74.8594 293.156 74.8594V76.8594C295.817 76.8594 297.433 77.4918 298.312 78.4892L299.813 77.1671ZM293.156 74.8594C291.095 74.8594 289.26 75.2877 287.69 76.187C286.118 77.0883 284.868 78.43 283.932 80.166L285.693 81.1152C286.475 79.6638 287.476 78.6149 288.685 77.9223C289.896 77.228 291.374 76.8594 293.156 76.8594V74.8594ZM283.812 80.6406V116.5H285.812V80.6406H283.812ZM284.812 115.5H271.266V117.5H284.812V115.5ZM272.266 116.5V65.7812H270.266V116.5H272.266ZM271.266 66.7812H283.969V64.7812H271.266V66.7812Z" fill="black" fill-opacity="0.33"/>
<path d="M68.7801 7.35025C67.4521 6.59531 66.0788 5.81477 66.7914 2.44766C66.8213 2.3061 66.7262 2.16558 66.5427 2.0797C66.359 1.99383 66.1152 1.97589 65.9046 2.03299C65.7451 2.07605 62 3.13116 62 6.80517C62 8.52361 63.5316 9.42016 64.8829 10.2113C65.9875 10.858 66.9415 11.4165 66.9415 12.3429C66.9415 13.0072 66.8176 13.474 66.679 13.7882C66.5008 14.1925 65.9291 14.6112 66.2884 14.8685V14.8685C66.4108 14.9563 66.5865 15 66.7644 15C66.9112 15 67.0595 14.9702 67.1804 14.9106C67.3364 14.8337 71 12.9974 71 10.3324C71 8.61214 69.8715 7.97061 68.7801 7.35025ZM65.7576 9.63508C64.481 8.88776 63.2752 8.18188 63.2752 6.80517V6.80517C63.2752 5.02001 65.303 6.04499 66.7009 7.15529C67.085 7.46039 67.5094 7.70162 67.9189 7.93437C68.9278 8.50792 69.7246 8.96086 69.7246 10.3324C69.7246 11.1787 69.2682 11.9403 68.693 12.5642C68.5225 12.7492 68.2168 12.5947 68.2168 12.343V12.343C68.2168 11.0747 66.9666 10.3428 65.7576 9.63508Z" fill="#F3F2F2"/>
<path d="M69.5694 8.49703C69.4962 8.41691 69.4182 8.34143 69.3364 8.26985C69.5604 8.42209 69.7608 8.58286 69.9321 8.7682C70.2665 9.13005 70.5 9.59978 70.5 10.3324C70.5 11.4363 69.7317 12.4338 68.8233 13.2124C67.9339 13.9747 67.0216 14.4314 66.9594 14.4621L66.9593 14.4621C66.9273 14.4779 66.8762 14.4927 66.8135 14.4979C66.8155 14.4952 66.8176 14.4923 66.8198 14.4895C66.8424 14.459 66.8676 14.4252 66.8962 14.3861C66.9713 14.2831 67.0686 14.144 67.1366 13.9899C67.3053 13.6071 67.4415 13.071 67.4415 12.3429C67.4415 11.6814 67.0918 11.1853 66.6594 10.7992C66.6391 10.781 66.6183 10.763 66.5973 10.745C66.7813 10.8741 66.9506 11.0063 67.1006 11.1454C67.5049 11.5203 67.7168 11.8971 67.7168 12.343C67.7168 12.6815 67.9226 12.947 68.1744 13.068C68.435 13.1933 68.8015 13.1842 69.0607 12.9031C69.673 12.239 70.2246 11.3606 70.2246 10.3324C70.2246 9.53303 69.986 8.95344 69.5694 8.49703ZM66.5795 14.462C66.5796 14.462 66.5796 14.4621 66.5797 14.4621L66.2884 14.8685L66.5795 14.462ZM63.6916 8.81708C63.7618 8.88434 63.8351 8.94977 63.9108 9.01354C63.6836 8.85143 63.472 8.68144 63.2837 8.49792C62.7986 8.02506 62.5 7.49286 62.5 6.80517C62.5 5.1668 63.3251 4.11825 64.1955 3.45522C65.0777 2.78315 65.9829 2.52974 66.0349 2.5157L66.0354 2.51556C66.1135 2.49439 66.2004 2.49641 66.268 2.51183C65.9422 4.16881 66.098 5.30109 66.5902 6.13309C66.7967 6.48218 67.0547 6.76251 67.3321 6.9973C67.222 6.92303 67.1151 6.84577 67.0119 6.76376C66.2984 6.19705 65.3738 5.60822 64.5861 5.40961C64.1989 5.31198 63.7295 5.27948 63.3416 5.53125C62.9273 5.80026 62.7752 6.277 62.7752 6.80517C62.7752 7.66536 63.1613 8.30863 63.6916 8.81708Z" stroke="#949494" stroke-opacity="0.33"/>
<rect x="61" y="13" width="13" height="16" fill="#949494"/>
<rect x="61.5" y="13.5" width="12" height="15" stroke="#EFEFEF" stroke-opacity="0.33"/>
<path d="M39.662 -2.19817e-06L119 64.5L104.5 64.5L64.9015 32.6944L42.4999 14.5L27.9999 32L16.0771 47.0368L5.07715 47.0368L22.3696 23.5184L39.662 -2.19817e-06Z" fill="#949494"/>
<path d="M27.6081 31.6894L15.8355 46.5368L6.06539 46.5368L22.7724 23.8146L39.7539 0.719085L117.592 64L104.676 64L65.2168 32.3063L65.2146 32.3046L42.8151 14.1119L42.4308 13.7997L42.1149 14.181L27.6149 31.681L27.6148 31.6809L27.6081 31.6894Z" stroke="#EFEFEF" stroke-opacity="0.31"/>
</svg>
