<svg width="350" height="154" viewBox="0 0 350 154" fill="none" xmlns="http://www.w3.org/2000/svg">
<path d="M261.523 147.5V130.438H267.5C269.57 130.438 271.141 130.836 272.211 131.633C273.281 132.422 273.816 133.582 273.816 135.113C273.816 135.949 273.602 136.688 273.172 137.328C272.742 137.961 272.145 138.426 271.379 138.723C272.254 138.941 272.941 139.383 273.441 140.047C273.949 140.711 274.203 141.523 274.203 142.484C274.203 144.125 273.68 145.367 272.633 146.211C271.586 147.055 270.094 147.484 268.156 147.5H261.523ZM265.039 140.07V144.676H268.051C268.879 144.676 269.523 144.48 269.984 144.09C270.453 143.691 270.688 143.145 270.688 142.449C270.688 140.887 269.879 140.094 268.262 140.07H265.039ZM265.039 137.586H267.641C269.414 137.555 270.301 136.848 270.301 135.465C270.301 134.691 270.074 134.137 269.621 133.801C269.176 133.457 268.469 133.285 267.5 133.285H265.039V137.586ZM284.223 146.211C283.387 147.227 282.23 147.734 280.754 147.734C279.395 147.734 278.355 147.344 277.637 146.562C276.926 145.781 276.562 144.637 276.547 143.129V134.82H279.934V143.012C279.934 144.332 280.535 144.992 281.738 144.992C282.887 144.992 283.676 144.594 284.105 143.797V134.82H287.504V147.5H284.316L284.223 146.211ZM293.633 147.5H290.234V129.5H293.633V147.5ZM295.906 141.066C295.906 139.09 296.348 137.516 297.23 136.344C298.121 135.172 299.336 134.586 300.875 134.586C302.109 134.586 303.129 135.047 303.934 135.969V129.5H307.332V147.5H304.273L304.109 146.152C303.266 147.207 302.18 147.734 300.852 147.734C299.359 147.734 298.16 147.148 297.254 145.977C296.355 144.797 295.906 143.16 295.906 141.066ZM299.293 141.312C299.293 142.5 299.5 143.41 299.914 144.043C300.328 144.676 300.93 144.992 301.719 144.992C302.766 144.992 303.504 144.551 303.934 143.668V138.664C303.512 137.781 302.781 137.34 301.742 137.34C300.109 137.34 299.293 138.664 299.293 141.312ZM313.531 147.5H310.133V134.82H313.531V147.5ZM309.934 131.539C309.934 131.031 310.102 130.613 310.438 130.285C310.781 129.957 311.246 129.793 311.832 129.793C312.41 129.793 312.871 129.957 313.215 130.285C313.559 130.613 313.73 131.031 313.73 131.539C313.73 132.055 313.555 132.477 313.203 132.805C312.859 133.133 312.402 133.297 311.832 133.297C311.262 133.297 310.801 133.133 310.449 132.805C310.105 132.477 309.934 132.055 309.934 131.539ZM319.449 134.82L319.555 136.285C320.461 135.152 321.676 134.586 323.199 134.586C324.543 134.586 325.543 134.98 326.199 135.77C326.855 136.559 327.191 137.738 327.207 139.309V147.5H323.82V139.391C323.82 138.672 323.664 138.152 323.352 137.832C323.039 137.504 322.52 137.34 321.793 137.34C320.84 137.34 320.125 137.746 319.648 138.559V147.5H316.262V134.82H319.449ZM329.293 141.066C329.293 139.121 329.754 137.555 330.676 136.367C331.605 135.18 332.855 134.586 334.426 134.586C335.816 134.586 336.898 135.062 337.672 136.016L337.812 134.82H340.883V147.078C340.883 148.188 340.629 149.152 340.121 149.973C339.621 150.793 338.914 151.418 338 151.848C337.086 152.277 336.016 152.492 334.789 152.492C333.859 152.492 332.953 152.305 332.07 151.93C331.188 151.562 330.52 151.086 330.066 150.5L331.566 148.438C332.41 149.383 333.434 149.855 334.637 149.855C335.535 149.855 336.234 149.613 336.734 149.129C337.234 148.652 337.484 147.973 337.484 147.09V146.41C336.703 147.293 335.676 147.734 334.402 147.734C332.879 147.734 331.645 147.141 330.699 145.953C329.762 144.758 329.293 143.176 329.293 141.207V141.066ZM332.68 141.312C332.68 142.461 332.91 143.363 333.371 144.02C333.832 144.668 334.465 144.992 335.27 144.992C336.301 144.992 337.039 144.605 337.484 143.832V138.5C337.031 137.727 336.301 137.34 335.293 137.34C334.48 137.34 333.84 137.672 333.371 138.336C332.91 139 332.68 139.992 332.68 141.312Z" fill="#288E17"/>
<path d="M20.1562 104.203H50.0156V115.5H6.09375V47.25H20.1562V104.203ZM80.5781 116.438C73.1406 116.438 67.0781 114.156 62.3906 109.594C57.7344 105.031 55.4062 98.9531 55.4062 91.3594V90.0469C55.4062 84.9531 56.3906 80.4062 58.3594 76.4062C60.3281 72.375 63.1094 69.2812 66.7031 67.125C70.3281 64.9375 74.4531 63.8438 79.0781 63.8438C86.0156 63.8438 91.4688 66.0312 95.4375 70.4062C99.4375 74.7812 101.438 80.9844 101.438 89.0156V94.5469H69.1406C69.5781 97.8594 70.8906 100.516 73.0781 102.516C75.2969 104.516 78.0938 105.516 81.4688 105.516C86.6875 105.516 90.7656 103.625 93.7031 99.8438L100.359 107.297C98.3281 110.172 95.5781 112.422 92.1094 114.047C88.6406 115.641 84.7969 116.438 80.5781 116.438ZM79.0312 74.8125C76.3438 74.8125 74.1562 75.7188 72.4688 77.5312C70.8125 79.3438 69.75 81.9375 69.2812 85.3125H88.125V84.2344C88.0625 81.2344 87.25 78.9219 85.6875 77.2969C84.125 75.6406 81.9062 74.8125 79.0312 74.8125ZM128.484 79.9219L137.016 64.7812H151.5L137.062 89.625L152.109 115.5H137.578L128.531 99.5625L119.531 115.5H104.953L120 89.625L105.609 64.7812H120.141L128.484 79.9219Z" fill="white"/>
<path d="M184.172 90.5156H172.969V115.5H158.906V47.25H184.266C192.328 47.25 198.547 49.0469 202.922 52.6406C207.297 56.2344 209.484 61.3125 209.484 67.875C209.484 72.5312 208.469 76.4219 206.438 79.5469C204.438 82.6406 201.391 85.1094 197.297 86.9531L212.062 114.844V115.5H196.969L184.172 90.5156ZM172.969 79.125H184.312C187.844 79.125 190.578 78.2344 192.516 76.4531C194.453 74.6406 195.422 72.1562 195.422 69C195.422 65.7812 194.5 63.25 192.656 61.4062C190.844 59.5625 188.047 58.6406 184.266 58.6406H172.969V79.125ZM242.672 116.438C235.234 116.438 229.172 114.156 224.484 109.594C219.828 105.031 217.5 98.9531 217.5 91.3594V90.0469C217.5 84.9531 218.484 80.4062 220.453 76.4062C222.422 72.375 225.203 69.2812 228.797 67.125C232.422 64.9375 236.547 63.8438 241.172 63.8438C248.109 63.8438 253.562 66.0312 257.531 70.4062C261.531 74.7812 263.531 80.9844 263.531 89.0156V94.5469H231.234C231.672 97.8594 232.984 100.516 235.172 102.516C237.391 104.516 240.188 105.516 243.562 105.516C248.781 105.516 252.859 103.625 255.797 99.8438L262.453 107.297C260.422 110.172 257.672 112.422 254.203 114.047C250.734 115.641 246.891 116.438 242.672 116.438ZM241.125 74.8125C238.438 74.8125 236.25 75.7188 234.562 77.5312C232.906 79.3438 231.844 81.9375 231.375 85.3125H250.219V84.2344C250.156 81.2344 249.344 78.9219 247.781 77.2969C246.219 75.6406 244 74.8125 241.125 74.8125ZM283.969 64.7812L284.391 70.4531C287.984 66.0469 292.844 63.8438 298.969 63.8438C305.5 63.8438 309.984 66.4219 312.422 71.5781C315.984 66.4219 321.062 63.8438 327.656 63.8438C333.156 63.8438 337.25 65.4531 339.938 68.6719C342.625 71.8594 343.969 76.6719 343.969 83.1094V115.5H330.375V83.1562C330.375 80.2812 329.812 78.1875 328.688 76.875C327.562 75.5312 325.578 74.8594 322.734 74.8594C318.672 74.8594 315.859 76.7969 314.297 80.6719L314.344 115.5H300.797V83.2031C300.797 80.2656 300.219 78.1406 299.062 76.8281C297.906 75.5156 295.938 74.8594 293.156 74.8594C289.312 74.8594 286.531 76.4531 284.812 79.6406V115.5H271.266V64.7812H283.969Z" fill="#288E17"/>
<path d="M20.1562 104.203H19.1562V105.203H20.1562V104.203ZM50.0156 104.203H51.0156V103.203H50.0156V104.203ZM50.0156 115.5V116.5H51.0156V115.5H50.0156ZM6.09375 115.5H5.09375V116.5H6.09375V115.5ZM6.09375 47.25V46.25H5.09375V47.25H6.09375ZM20.1562 47.25H21.1562V46.25H20.1562V47.25ZM20.1562 105.203H50.0156V103.203H20.1562V105.203ZM49.0156 104.203V115.5H51.0156V104.203H49.0156ZM50.0156 114.5H6.09375V116.5H50.0156V114.5ZM7.09375 115.5V47.25H5.09375V115.5H7.09375ZM6.09375 48.25H20.1562V46.25H6.09375V48.25ZM19.1562 47.25V104.203H21.1562V47.25H19.1562ZM62.3906 109.594L61.6907 110.308L61.6931 110.31L62.3906 109.594ZM58.3594 76.4062L59.2566 76.8478L59.2579 76.8451L58.3594 76.4062ZM66.7031 67.125L67.2176 67.9825L67.2198 67.9812L66.7031 67.125ZM95.4375 70.4062L94.6968 71.0781L94.6995 71.081L95.4375 70.4062ZM101.438 94.5469V95.5469H102.438V94.5469H101.438ZM69.1406 94.5469V93.5469H67.9999L68.1492 94.6778L69.1406 94.5469ZM73.0781 102.516L72.4033 103.254L72.4086 103.258L73.0781 102.516ZM93.7031 99.8438L94.449 99.1776L93.6496 98.2826L92.9134 99.2303L93.7031 99.8438ZM100.359 107.297L101.176 107.874L101.635 107.224L101.105 106.631L100.359 107.297ZM92.1094 114.047L92.5269 114.956L92.5336 114.952L92.1094 114.047ZM72.4688 77.5312L71.7368 76.8498L71.7305 76.8567L72.4688 77.5312ZM69.2812 85.3125L68.2908 85.1749L68.1328 86.3125H69.2812V85.3125ZM88.125 85.3125V86.3125H89.125V85.3125H88.125ZM88.125 84.2344H89.125V84.224L89.1248 84.2135L88.125 84.2344ZM85.6875 77.2969L84.9601 77.9831L84.9667 77.99L85.6875 77.2969ZM80.5781 115.438C73.3625 115.438 67.5629 113.233 63.0881 108.877L61.6931 110.31C66.5933 115.08 72.9188 117.438 80.5781 117.438V115.438ZM63.0905 108.879C58.658 104.536 56.4062 98.7324 56.4062 91.3594H54.4062C54.4062 99.1739 56.8108 105.526 61.6907 110.308L63.0905 108.879ZM56.4062 91.3594V90.0469H54.4062V91.3594H56.4062ZM56.4062 90.0469C56.4062 85.0844 57.3645 80.6921 59.2566 76.8478L57.4622 75.9647C55.4167 80.1204 54.4062 84.8219 54.4062 90.0469H56.4062ZM59.2579 76.8451C61.1481 72.9748 63.8015 70.0322 67.2176 67.9825L66.1886 66.2675C62.4173 68.5303 59.5082 71.7752 57.4608 75.9674L59.2579 76.8451ZM67.2198 67.9812C70.6746 65.8964 74.6178 64.8438 79.0781 64.8438V62.8438C74.2884 62.8438 69.9816 63.9786 66.1865 66.2688L67.2198 67.9812ZM79.0781 64.8438C85.7874 64.8438 90.9511 66.9489 94.6968 71.0781L96.1782 69.7344C91.9864 65.1136 86.2439 62.8438 79.0781 62.8438V64.8438ZM94.6995 71.081C98.4788 75.2147 100.438 81.1443 100.438 89.0156H102.438C102.438 80.8244 100.396 74.3478 96.1755 69.7315L94.6995 71.081ZM100.438 89.0156V94.5469H102.438V89.0156H100.438ZM101.438 93.5469H69.1406V95.5469H101.438V93.5469ZM68.1492 94.6778C68.6134 98.192 70.02 101.075 72.4034 103.254L73.7529 101.778C71.7612 99.9566 70.5429 97.5267 70.132 94.4159L68.1492 94.6778ZM72.4086 103.258C74.8351 105.446 77.8809 106.516 81.4688 106.516V104.516C78.3066 104.516 75.7586 103.586 73.7477 101.773L72.4086 103.258ZM81.4688 106.516C86.9644 106.516 91.3471 104.506 94.4928 100.457L92.9134 99.2303C90.1841 102.744 86.4106 104.516 81.4688 104.516V106.516ZM92.9573 100.51L99.6135 107.963L101.105 106.631L94.449 99.1776L92.9573 100.51ZM99.5427 106.72C97.6202 109.441 95.011 111.583 91.6852 113.141L92.5336 114.952C96.1452 113.261 99.036 110.903 101.176 107.874L99.5427 106.72ZM91.6919 113.138C88.3673 114.666 84.668 115.438 80.5781 115.438V117.438C84.9257 117.438 88.914 116.616 92.5269 114.956L91.6919 113.138ZM79.0312 73.8125C76.0925 73.8125 73.6308 74.8156 71.7369 76.8498L73.2006 78.2127C74.6817 76.6219 76.595 75.8125 79.0312 75.8125V73.8125ZM71.7305 76.8567C69.8942 78.8663 68.7769 81.6749 68.2908 85.1749L70.2717 85.4501C70.7231 82.2001 71.7308 79.8212 73.207 78.2058L71.7305 76.8567ZM69.2812 86.3125H88.125V84.3125H69.2812V86.3125ZM89.125 85.3125V84.2344H87.125V85.3125H89.125ZM89.1248 84.2135C89.0588 81.0473 88.196 78.463 86.4083 76.6038L84.9667 77.99C86.304 79.3808 87.0662 81.4215 87.1252 84.2552L89.1248 84.2135ZM86.4149 76.6107C84.6165 74.7044 82.1047 73.8125 79.0312 73.8125V75.8125C81.7078 75.8125 83.6335 76.5769 84.9601 77.9831L86.4149 76.6107ZM128.484 79.9219L127.609 80.4045L128.475 81.9762L129.356 80.4128L128.484 79.9219ZM137.016 64.7812V63.7812H136.431L136.144 64.2903L137.016 64.7812ZM151.5 64.7812L152.365 65.2837L153.238 63.7812H151.5V64.7812ZM137.062 89.625L136.198 89.1225L135.906 89.6252L136.198 90.1277L137.062 89.625ZM152.109 115.5V116.5H153.848L152.974 114.997L152.109 115.5ZM137.578 115.5L136.708 115.994L136.996 116.5H137.578V115.5ZM128.531 99.5625L129.401 99.0688L128.529 97.5328L127.66 99.0708L128.531 99.5625ZM119.531 115.5V116.5H120.115L120.402 115.992L119.531 115.5ZM104.953 115.5L104.089 114.997L103.215 116.5H104.953V115.5ZM120 89.625L120.864 90.1277L121.156 89.626L120.865 89.1238L120 89.625ZM105.609 64.7812V63.7812H103.874L104.744 65.2825L105.609 64.7812ZM120.141 64.7812L121.016 64.2986L120.731 63.7812H120.141V64.7812ZM129.356 80.4128L137.887 65.2722L136.144 64.2903L127.613 79.431L129.356 80.4128ZM137.016 65.7812H151.5V63.7812H137.016V65.7812ZM150.635 64.2788L136.198 89.1225L137.927 90.1275L152.365 65.2837L150.635 64.2788ZM136.198 90.1277L151.245 116.003L152.974 114.997L137.927 89.1223L136.198 90.1277ZM152.109 114.5H137.578V116.5H152.109V114.5ZM138.448 115.006L129.401 99.0688L127.662 100.056L136.708 115.994L138.448 115.006ZM127.66 99.0708L118.66 115.008L120.402 115.992L129.402 100.054L127.66 99.0708ZM119.531 114.5H104.953V116.5H119.531V114.5ZM105.818 116.003L120.864 90.1277L119.136 89.1223L104.089 114.997L105.818 116.003ZM120.865 89.1238L106.475 64.28L104.744 65.2825L119.135 90.1262L120.865 89.1238ZM105.609 65.7812H120.141V63.7812H105.609V65.7812ZM119.265 65.2639L127.609 80.4045L129.36 79.4392L121.016 64.2986L119.265 65.2639ZM184.172 90.5156L185.062 90.0597L184.783 89.5156H184.172V90.5156ZM172.969 90.5156V89.5156H171.969V90.5156H172.969ZM172.969 115.5V116.5H173.969V115.5H172.969ZM158.906 115.5H157.906V116.5H158.906V115.5ZM158.906 47.25V46.25H157.906V47.25H158.906ZM206.438 79.5469L205.599 79.0019L205.598 79.004L206.438 79.5469ZM197.297 86.9531L196.886 86.0413L195.914 86.479L196.413 87.421L197.297 86.9531ZM212.062 114.844H213.062V114.595L212.946 114.376L212.062 114.844ZM212.062 115.5V116.5H213.062V115.5H212.062ZM196.969 115.5L196.079 115.956L196.357 116.5H196.969V115.5ZM172.969 79.125H171.969V80.125H172.969V79.125ZM192.516 76.4531L193.192 77.1893L193.199 77.1834L192.516 76.4531ZM192.656 61.4062L191.943 62.1073L191.949 62.1134L192.656 61.4062ZM172.969 58.6406V57.6406H171.969V58.6406H172.969ZM184.172 89.5156H172.969V91.5156H184.172V89.5156ZM171.969 90.5156V115.5H173.969V90.5156H171.969ZM172.969 114.5H158.906V116.5H172.969V114.5ZM159.906 115.5V47.25H157.906V115.5H159.906ZM158.906 48.25H184.266V46.25H158.906V48.25ZM184.266 48.25C192.193 48.25 198.153 50.0178 202.287 53.4134L203.557 51.8679C198.94 48.0759 192.463 46.25 184.266 46.25V48.25ZM202.287 53.4134C206.393 56.7858 208.484 61.5585 208.484 67.875H210.484C210.484 61.0665 208.201 55.683 203.557 51.8679L202.287 53.4134ZM208.484 67.875C208.484 72.386 207.501 76.0753 205.599 79.0019L207.276 80.0919C209.436 76.7685 210.484 72.6765 210.484 67.875H208.484ZM205.598 79.004C203.723 81.9037 200.843 84.2592 196.886 86.0413L197.708 87.8649C201.938 85.9595 205.152 83.3775 207.277 80.0898L205.598 79.004ZM196.413 87.421L211.179 115.312L212.946 114.376L198.181 86.4852L196.413 87.421ZM211.062 114.844V115.5H213.062V114.844H211.062ZM212.062 114.5H196.969V116.5H212.062V114.5ZM197.859 115.044L185.062 90.0597L183.282 90.9715L196.079 115.956L197.859 115.044ZM172.969 80.125H184.312V78.125H172.969V80.125ZM184.312 80.125C188.007 80.125 191.015 79.1912 193.192 77.1893L191.839 75.717C190.141 77.2775 187.68 78.125 184.312 78.125V80.125ZM193.199 77.1834C195.377 75.1461 196.422 72.3761 196.422 69H194.422C194.422 71.9364 193.53 74.1351 191.832 75.7229L193.199 77.1834ZM196.422 69C196.422 65.582 195.437 62.7724 193.363 60.6991L191.949 62.1134C193.563 63.7276 194.422 65.9805 194.422 69H196.422ZM193.369 60.7052C191.297 58.5969 188.191 57.6406 184.266 57.6406V59.6406C187.903 59.6406 190.391 60.5281 191.943 62.1073L193.369 60.7052ZM184.266 57.6406H172.969V59.6406H184.266V57.6406ZM171.969 58.6406V79.125H173.969V58.6406H171.969ZM224.484 109.594L223.784 110.308L223.787 110.31L224.484 109.594ZM220.453 76.4062L221.35 76.8478L221.352 76.8451L220.453 76.4062ZM228.797 67.125L229.311 67.9825L229.314 67.9812L228.797 67.125ZM257.531 70.4062L256.791 71.0781L256.793 71.081L257.531 70.4062ZM263.531 94.5469V95.5469H264.531V94.5469H263.531ZM231.234 94.5469V93.5469H230.094L230.243 94.6778L231.234 94.5469ZM235.172 102.516L234.497 103.254L234.502 103.258L235.172 102.516ZM255.797 99.8438L256.543 99.1776L255.743 98.2826L255.007 99.2303L255.797 99.8438ZM262.453 107.297L263.27 107.874L263.729 107.224L263.199 106.631L262.453 107.297ZM254.203 114.047L254.621 114.956L254.627 114.952L254.203 114.047ZM234.562 77.5312L233.831 76.8498L233.824 76.8567L234.562 77.5312ZM231.375 85.3125L230.385 85.1749L230.227 86.3125H231.375V85.3125ZM250.219 85.3125V86.3125H251.219V85.3125H250.219ZM250.219 84.2344H251.219V84.224L251.219 84.2135L250.219 84.2344ZM247.781 77.2969L247.054 77.9831L247.06 77.99L247.781 77.2969ZM242.672 115.438C235.456 115.438 229.657 113.233 225.182 108.877L223.787 110.31C228.687 115.08 235.013 117.438 242.672 117.438V115.438ZM225.184 108.879C220.752 104.536 218.5 98.7324 218.5 91.3594H216.5C216.5 99.1739 218.905 105.526 223.784 110.308L225.184 108.879ZM218.5 91.3594V90.0469H216.5V91.3594H218.5ZM218.5 90.0469C218.5 85.0844 219.458 80.6921 221.35 76.8478L219.556 75.9647C217.51 80.1204 216.5 84.8219 216.5 90.0469H218.5ZM221.352 76.8451C223.242 72.9748 225.895 70.0322 229.311 67.9825L228.282 66.2675C224.511 68.5303 221.602 71.7752 219.555 75.9674L221.352 76.8451ZM229.314 67.9812C232.768 65.8964 236.712 64.8438 241.172 64.8438V62.8438C236.382 62.8438 232.075 63.9786 228.28 66.2688L229.314 67.9812ZM241.172 64.8438C247.881 64.8438 253.045 66.9489 256.791 71.0781L258.272 69.7344C254.08 65.1136 248.338 62.8438 241.172 62.8438V64.8438ZM256.793 71.081C260.573 75.2147 262.531 81.1443 262.531 89.0156H264.531C264.531 80.8244 262.49 74.3478 258.269 69.7315L256.793 71.081ZM262.531 89.0156V94.5469H264.531V89.0156H262.531ZM263.531 93.5469H231.234V95.5469H263.531V93.5469ZM230.243 94.6778C230.707 98.192 232.114 101.075 234.497 103.254L235.847 101.778C233.855 99.9566 232.637 97.5267 232.226 94.4159L230.243 94.6778ZM234.502 103.258C236.929 105.446 239.975 106.516 243.562 106.516V104.516C240.4 104.516 237.852 103.586 235.841 101.773L234.502 103.258ZM243.562 106.516C249.058 106.516 253.441 104.506 256.587 100.457L255.007 99.2303C252.278 102.744 248.504 104.516 243.562 104.516V106.516ZM255.051 100.51L261.707 107.963L263.199 106.631L256.543 99.1776L255.051 100.51ZM261.636 106.72C259.714 109.441 257.105 111.583 253.779 113.141L254.627 114.952C258.239 113.261 261.13 110.903 263.27 107.874L261.636 106.72ZM253.786 113.138C250.461 114.666 246.762 115.438 242.672 115.438V117.438C247.019 117.438 251.008 116.616 254.621 114.956L253.786 113.138ZM241.125 73.8125C238.186 73.8125 235.725 74.8156 233.831 76.8498L235.294 78.2127C236.775 76.6219 238.689 75.8125 241.125 75.8125V73.8125ZM233.824 76.8567C231.988 78.8663 230.871 81.6749 230.385 85.1749L232.365 85.4501C232.817 82.2001 233.825 79.8212 235.301 78.2058L233.824 76.8567ZM231.375 86.3125H250.219V84.3125H231.375V86.3125ZM251.219 85.3125V84.2344H249.219V85.3125H251.219ZM251.219 84.2135C251.153 81.0473 250.29 78.463 248.502 76.6038L247.06 77.99C248.398 79.3808 249.16 81.4215 249.219 84.2552L251.219 84.2135ZM248.509 76.6107C246.71 74.7044 244.198 73.8125 241.125 73.8125V75.8125C243.802 75.8125 245.727 76.5769 247.054 77.9831L248.509 76.6107ZM283.969 64.7812L284.966 64.7071L284.897 63.7812H283.969V64.7812ZM284.391 70.4531L283.393 70.5273L283.58 73.0298L285.166 71.0852L284.391 70.4531ZM312.422 71.5781L311.518 72.0055L312.259 73.5732L313.245 72.1466L312.422 71.5781ZM339.938 68.6719L339.17 69.3128L339.173 69.3165L339.938 68.6719ZM343.969 115.5V116.5H344.969V115.5H343.969ZM330.375 115.5H329.375V116.5H330.375V115.5ZM328.688 76.875L327.921 77.517L327.928 77.5258L328.688 76.875ZM314.297 80.6719L313.369 80.2979L313.297 80.4785L313.297 80.6732L314.297 80.6719ZM314.344 115.5V116.5H315.345L315.344 115.499L314.344 115.5ZM300.797 115.5H299.797V116.5H300.797V115.5ZM284.812 79.6406L283.932 79.166L283.812 79.3882V79.6406H284.812ZM284.812 115.5V116.5H285.812V115.5H284.812ZM271.266 115.5H270.266V116.5H271.266V115.5ZM271.266 64.7812V63.7812H270.266V64.7812H271.266ZM282.972 64.8554L283.393 70.5273L285.388 70.3789L284.966 64.7071L282.972 64.8554ZM285.166 71.0852C288.553 66.9316 293.118 64.8438 298.969 64.8438V62.8438C292.57 62.8438 287.416 65.1622 283.616 69.8211L285.166 71.0852ZM298.969 64.8438C302.105 64.8438 304.676 65.4625 306.732 66.6443C308.779 67.8213 310.377 69.5921 311.518 72.0055L313.326 71.1507C312.029 68.4079 310.166 66.3116 307.729 64.9104C305.3 63.5141 302.364 62.8438 298.969 62.8438V64.8438ZM313.245 72.1466C316.609 67.2768 321.371 64.8438 327.656 64.8438V62.8438C320.754 62.8438 315.36 65.5669 311.599 71.0097L313.245 72.1466ZM327.656 64.8438C332.959 64.8438 336.728 66.3879 339.17 69.3128L340.705 68.031C337.772 64.5183 333.354 62.8438 327.656 62.8438V64.8438ZM339.173 69.3165C341.645 72.2481 342.969 76.7854 342.969 83.1094H344.969C344.969 76.5583 343.605 71.4706 340.702 68.0273L339.173 69.3165ZM342.969 83.1094V115.5H344.969V83.1094H342.969ZM343.969 114.5H330.375V116.5H343.969V114.5ZM331.375 115.5V83.1562H329.375V115.5H331.375ZM331.375 83.1562C331.375 80.1891 330.801 77.8047 329.447 76.2242L327.928 77.5258C328.824 78.5703 329.375 80.3734 329.375 83.1562H331.375ZM329.454 76.2331C328.047 74.5527 325.693 73.8594 322.734 73.8594V75.8594C325.463 75.8594 327.078 76.5098 327.921 77.5169L329.454 76.2331ZM322.734 73.8594C320.54 73.8594 318.614 74.3849 317.011 75.489C315.41 76.5917 314.208 78.2194 313.369 80.2979L315.224 81.0458C315.949 79.2493 316.934 77.9708 318.145 77.136C319.355 76.3026 320.867 75.8594 322.734 75.8594V73.8594ZM313.297 80.6732L313.344 115.501L315.344 115.499L315.297 80.6705L313.297 80.6732ZM314.344 114.5H300.797V116.5H314.344V114.5ZM301.797 115.5V83.2031H299.797V115.5H301.797ZM301.797 83.2031C301.797 80.1753 301.208 77.7513 299.813 76.1671L298.312 77.4892C299.229 78.53 299.797 80.356 299.797 83.2031H301.797ZM299.813 76.1671C298.379 74.5395 296.058 73.8594 293.156 73.8594V75.8594C295.817 75.8594 297.433 76.4918 298.312 77.4892L299.813 76.1671ZM293.156 73.8594C291.095 73.8594 289.26 74.2877 287.69 75.187C286.118 76.0883 284.868 77.43 283.932 79.166L285.693 80.1152C286.475 78.6638 287.476 77.6149 288.685 76.9223C289.896 76.228 291.374 75.8594 293.156 75.8594V73.8594ZM283.812 79.6406V115.5H285.812V79.6406H283.812ZM284.812 114.5H271.266V116.5H284.812V114.5ZM272.266 115.5V64.7812H270.266V115.5H272.266ZM271.266 65.7812H283.969V63.7812H271.266V65.7812Z" fill="black"/>
<path d="M72.5694 7.99703C72.4962 7.91691 72.4182 7.84143 72.3364 7.76985C72.5604 7.92209 72.7608 8.08286 72.9321 8.2682C73.2665 8.63005 73.5 9.09978 73.5 9.83241C73.5 10.9363 72.7317 11.9338 71.8233 12.7124C71.6342 12.8745 71.4442 13.0227 71.2614 13.1559L71.4947 12.9519C72.3144 12.2351 73.2246 11.1545 73.2246 9.83241C73.2246 9.03303 72.986 8.45344 72.5694 7.99703ZM70.6709 12.5025L70.4999 13.6611C70.1965 13.8437 69.988 13.948 69.9594 13.9621L69.9593 13.9621C69.9321 13.9755 69.8909 13.9883 69.8405 13.995C70.0917 13.6717 70.4415 13.0099 70.4415 11.8429C70.4415 11.1814 70.0918 10.6853 69.6594 10.2992C69.6391 10.281 69.6183 10.263 69.5973 10.245C69.7813 10.3741 69.9506 10.5063 70.1006 10.6454C70.5049 11.0203 70.7168 11.3971 70.7168 11.843C70.7168 12.0892 70.6996 12.3083 70.6709 12.5025ZM66.6916 8.31708C66.7618 8.38434 66.8351 8.44977 66.9108 8.51354C66.6836 8.35143 66.472 8.18144 66.2837 7.99792C65.7986 7.52506 65.5 6.99286 65.5 6.30517C65.5 4.6668 66.3251 3.61825 67.1955 2.95522C67.2512 2.91272 67.3071 2.8719 67.3629 2.83271C66.5515 3.52529 65.7752 4.62929 65.7752 6.30517C65.7752 7.16536 66.1613 7.80863 66.6916 8.31708ZM68.8751 2.78233L68.9662 2.03589C69.004 2.02422 69.0277 2.01765 69.0349 2.0157L69.0354 2.01556C69.1135 1.99439 69.2004 1.99641 69.268 2.01183C68.9422 3.66881 69.098 4.80109 69.5902 5.63309C69.7963 5.98151 70.0537 6.26144 70.3305 6.49594C69.9705 6.25338 69.6516 5.98422 69.3979 5.6369C68.9793 5.06361 68.7 4.2159 68.8751 2.78233Z" fill="#F3F2F2" stroke="white"/>
<rect x="63.5" y="14" width="12" height="15" fill="#288E17" stroke="black"/>
<path d="M29.5309 31.6894L17.7583 46.5368L7.98825 46.5368L24.6952 23.8146L41.6767 0.719085L119.515 64L106.599 64L67.1396 32.3063L67.1375 32.3046L44.738 14.1119L44.3536 13.7997L44.0377 14.181L29.5377 31.681L29.5376 31.6809L29.5309 31.6894Z" fill="#288E17" stroke="black"/>
</svg>
