<svg width="30" height="20" viewBox="0 0 30 20" fill="none" xmlns="http://www.w3.org/2000/svg">
<path d="M27.3634 0H2.63683C2.23095 0 1.85097 0.0873329 1.5072 0.231281L14.9415 11.9891L17.9526 9.45645C17.9526 9.45645 17.9528 9.4562 17.9529 9.4561C17.9529 9.45599 17.9532 9.45589 17.9532 9.45589L28.4934 0.231486C28.1496 0.0874354 27.7694 0 27.3634 0Z" fill="white"/>
<path d="M29.7361 1.31934L19.8171 10L29.7357 18.6808C29.9002 18.38 30 18.0474 30 17.6922V2.30764C30 1.95261 29.9004 1.6201 29.7361 1.31934Z" fill="white"/>
<path d="M0.264258 1.31934C0.0997852 1.62021 0 1.95277 0 2.308V17.6925C0 18.0475 0.099668 18.3802 0.264023 18.6809L10.1829 10.0003L0.264258 1.31934Z" fill="white"/>
<path d="M18.5743 11.088L15.5628 13.621C15.3911 13.7712 15.1662 13.8463 14.9414 13.8463C14.7166 13.8463 14.4916 13.7712 14.32 13.621L11.4257 11.0879L1.50659 19.7686C1.85042 19.9127 2.23063 20.0001 2.63663 20.0001H27.3632C27.7691 20.0001 28.1491 19.9128 28.4928 19.7688L18.5743 11.088Z" fill="white"/>
</svg>
