<svg width="447" height="252" viewBox="0 0 447 252" fill="none" xmlns="http://www.w3.org/2000/svg">
<path d="M0 20C0 8.9543 8.95431 0 20 0H427C438.046 0 447 8.95431 447 20V232C447 243.046 438.046 252 427 252H20C8.95429 252 0 243.046 0 232V20Z" fill="black"/>
<path d="M309.523 190.5V173.438H315.5C317.57 173.438 319.141 173.836 320.211 174.633C321.281 175.422 321.816 176.582 321.816 178.113C321.816 178.949 321.602 179.688 321.172 180.328C320.742 180.961 320.145 181.426 319.379 181.723C320.254 181.941 320.941 182.383 321.441 183.047C321.949 183.711 322.203 184.523 322.203 185.484C322.203 187.125 321.68 188.367 320.633 189.211C319.586 190.055 318.094 190.484 316.156 190.5H309.523ZM313.039 183.07V187.676H316.051C316.879 187.676 317.523 187.48 317.984 187.09C318.453 186.691 318.688 186.145 318.688 185.449C318.688 183.887 317.879 183.094 316.262 183.07H313.039ZM313.039 180.586H315.641C317.414 180.555 318.301 179.848 318.301 178.465C318.301 177.691 318.074 177.137 317.621 176.801C317.176 176.457 316.469 176.285 315.5 176.285H313.039V180.586ZM332.223 189.211C331.387 190.227 330.23 190.734 328.754 190.734C327.395 190.734 326.355 190.344 325.637 189.562C324.926 188.781 324.562 187.637 324.547 186.129V177.82H327.934V186.012C327.934 187.332 328.535 187.992 329.738 187.992C330.887 187.992 331.676 187.594 332.105 186.797V177.82H335.504V190.5H332.316L332.223 189.211ZM341.633 190.5H338.234V172.5H341.633V190.5ZM343.906 184.066C343.906 182.09 344.348 180.516 345.23 179.344C346.121 178.172 347.336 177.586 348.875 177.586C350.109 177.586 351.129 178.047 351.934 178.969V172.5H355.332V190.5H352.273L352.109 189.152C351.266 190.207 350.18 190.734 348.852 190.734C347.359 190.734 346.16 190.148 345.254 188.977C344.355 187.797 343.906 186.16 343.906 184.066ZM347.293 184.312C347.293 185.5 347.5 186.41 347.914 187.043C348.328 187.676 348.93 187.992 349.719 187.992C350.766 187.992 351.504 187.551 351.934 186.668V181.664C351.512 180.781 350.781 180.34 349.742 180.34C348.109 180.34 347.293 181.664 347.293 184.312ZM361.531 190.5H358.133V177.82H361.531V190.5ZM357.934 174.539C357.934 174.031 358.102 173.613 358.438 173.285C358.781 172.957 359.246 172.793 359.832 172.793C360.41 172.793 360.871 172.957 361.215 173.285C361.559 173.613 361.73 174.031 361.73 174.539C361.73 175.055 361.555 175.477 361.203 175.805C360.859 176.133 360.402 176.297 359.832 176.297C359.262 176.297 358.801 176.133 358.449 175.805C358.105 175.477 357.934 175.055 357.934 174.539ZM367.449 177.82L367.555 179.285C368.461 178.152 369.676 177.586 371.199 177.586C372.543 177.586 373.543 177.98 374.199 178.77C374.855 179.559 375.191 180.738 375.207 182.309V190.5H371.82V182.391C371.82 181.672 371.664 181.152 371.352 180.832C371.039 180.504 370.52 180.34 369.793 180.34C368.84 180.34 368.125 180.746 367.648 181.559V190.5H364.262V177.82H367.449ZM377.293 184.066C377.293 182.121 377.754 180.555 378.676 179.367C379.605 178.18 380.855 177.586 382.426 177.586C383.816 177.586 384.898 178.062 385.672 179.016L385.812 177.82H388.883V190.078C388.883 191.188 388.629 192.152 388.121 192.973C387.621 193.793 386.914 194.418 386 194.848C385.086 195.277 384.016 195.492 382.789 195.492C381.859 195.492 380.953 195.305 380.07 194.93C379.188 194.562 378.52 194.086 378.066 193.5L379.566 191.438C380.41 192.383 381.434 192.855 382.637 192.855C383.535 192.855 384.234 192.613 384.734 192.129C385.234 191.652 385.484 190.973 385.484 190.09V189.41C384.703 190.293 383.676 190.734 382.402 190.734C380.879 190.734 379.645 190.141 378.699 188.953C377.762 187.758 377.293 186.176 377.293 184.207V184.066ZM380.68 184.312C380.68 185.461 380.91 186.363 381.371 187.02C381.832 187.668 382.465 187.992 383.27 187.992C384.301 187.992 385.039 187.605 385.484 186.832V181.5C385.031 180.727 384.301 180.34 383.293 180.34C382.48 180.34 381.84 180.672 381.371 181.336C380.91 182 380.68 182.992 380.68 184.312Z" fill="#288E17"/>
<path d="M68.1562 147.203H98.0156V158.5H54.0938V90.25H68.1562V147.203ZM128.578 159.438C121.141 159.438 115.078 157.156 110.391 152.594C105.734 148.031 103.406 141.953 103.406 134.359V133.047C103.406 127.953 104.391 123.406 106.359 119.406C108.328 115.375 111.109 112.281 114.703 110.125C118.328 107.938 122.453 106.844 127.078 106.844C134.016 106.844 139.469 109.031 143.438 113.406C147.438 117.781 149.438 123.984 149.438 132.016V137.547H117.141C117.578 140.859 118.891 143.516 121.078 145.516C123.297 147.516 126.094 148.516 129.469 148.516C134.688 148.516 138.766 146.625 141.703 142.844L148.359 150.297C146.328 153.172 143.578 155.422 140.109 157.047C136.641 158.641 132.797 159.438 128.578 159.438ZM127.031 117.812C124.344 117.812 122.156 118.719 120.469 120.531C118.812 122.344 117.75 124.938 117.281 128.312H136.125V127.234C136.062 124.234 135.25 121.922 133.688 120.297C132.125 118.641 129.906 117.812 127.031 117.812ZM176.484 122.922L185.016 107.781H199.5L185.062 132.625L200.109 158.5H185.578L176.531 142.562L167.531 158.5H152.953L168 132.625L153.609 107.781H168.141L176.484 122.922Z" fill="white"/>
<path d="M232.172 133.516H220.969V158.5H206.906V90.25H232.266C240.328 90.25 246.547 92.0469 250.922 95.6406C255.297 99.2344 257.484 104.312 257.484 110.875C257.484 115.531 256.469 119.422 254.438 122.547C252.438 125.641 249.391 128.109 245.297 129.953L260.062 157.844V158.5H244.969L232.172 133.516ZM220.969 122.125H232.312C235.844 122.125 238.578 121.234 240.516 119.453C242.453 117.641 243.422 115.156 243.422 112C243.422 108.781 242.5 106.25 240.656 104.406C238.844 102.562 236.047 101.641 232.266 101.641H220.969V122.125ZM290.672 159.438C283.234 159.438 277.172 157.156 272.484 152.594C267.828 148.031 265.5 141.953 265.5 134.359V133.047C265.5 127.953 266.484 123.406 268.453 119.406C270.422 115.375 273.203 112.281 276.797 110.125C280.422 107.938 284.547 106.844 289.172 106.844C296.109 106.844 301.562 109.031 305.531 113.406C309.531 117.781 311.531 123.984 311.531 132.016V137.547H279.234C279.672 140.859 280.984 143.516 283.172 145.516C285.391 147.516 288.188 148.516 291.562 148.516C296.781 148.516 300.859 146.625 303.797 142.844L310.453 150.297C308.422 153.172 305.672 155.422 302.203 157.047C298.734 158.641 294.891 159.438 290.672 159.438ZM289.125 117.812C286.438 117.812 284.25 118.719 282.562 120.531C280.906 122.344 279.844 124.938 279.375 128.312H298.219V127.234C298.156 124.234 297.344 121.922 295.781 120.297C294.219 118.641 292 117.812 289.125 117.812ZM331.969 107.781L332.391 113.453C335.984 109.047 340.844 106.844 346.969 106.844C353.5 106.844 357.984 109.422 360.422 114.578C363.984 109.422 369.062 106.844 375.656 106.844C381.156 106.844 385.25 108.453 387.938 111.672C390.625 114.859 391.969 119.672 391.969 126.109V158.5H378.375V126.156C378.375 123.281 377.812 121.188 376.688 119.875C375.562 118.531 373.578 117.859 370.734 117.859C366.672 117.859 363.859 119.797 362.297 123.672L362.344 158.5H348.797V126.203C348.797 123.266 348.219 121.141 347.062 119.828C345.906 118.516 343.938 117.859 341.156 117.859C337.312 117.859 334.531 119.453 332.812 122.641V158.5H319.266V107.781H331.969Z" fill="#288E17"/>
<path d="M68.1562 147.203H67.1562V148.203H68.1562V147.203ZM98.0156 147.203H99.0156V146.203H98.0156V147.203ZM98.0156 158.5V159.5H99.0156V158.5H98.0156ZM54.0938 158.5H53.0938V159.5H54.0938V158.5ZM54.0938 90.25V89.25H53.0938V90.25H54.0938ZM68.1562 90.25H69.1562V89.25H68.1562V90.25ZM68.1562 148.203H98.0156V146.203H68.1562V148.203ZM97.0156 147.203V158.5H99.0156V147.203H97.0156ZM98.0156 157.5H54.0938V159.5H98.0156V157.5ZM55.0938 158.5V90.25H53.0938V158.5H55.0938ZM54.0938 91.25H68.1562V89.25H54.0938V91.25ZM67.1562 90.25V147.203H69.1562V90.25H67.1562ZM110.391 152.594L109.691 153.308L109.693 153.31L110.391 152.594ZM106.359 119.406L107.257 119.848L107.258 119.845L106.359 119.406ZM114.703 110.125L115.218 110.982L115.22 110.981L114.703 110.125ZM143.438 113.406L142.697 114.078L142.699 114.081L143.438 113.406ZM149.438 137.547V138.547H150.438V137.547H149.438ZM117.141 137.547V136.547H116L116.149 137.678L117.141 137.547ZM121.078 145.516L120.403 146.254L120.409 146.258L121.078 145.516ZM141.703 142.844L142.449 142.178L141.65 141.283L140.913 142.23L141.703 142.844ZM148.359 150.297L149.176 150.874L149.635 150.224L149.105 149.631L148.359 150.297ZM140.109 157.047L140.527 157.956L140.534 157.952L140.109 157.047ZM120.469 120.531L119.737 119.85L119.731 119.857L120.469 120.531ZM117.281 128.312L116.291 128.175L116.133 129.312H117.281V128.312ZM136.125 128.312V129.312H137.125V128.312H136.125ZM136.125 127.234H137.125V127.224L137.125 127.214L136.125 127.234ZM133.688 120.297L132.96 120.983L132.967 120.99L133.688 120.297ZM128.578 158.438C121.362 158.438 115.563 156.233 111.088 151.877L109.693 153.31C114.593 158.08 120.919 160.438 128.578 160.438V158.438ZM111.091 151.879C106.658 147.536 104.406 141.732 104.406 134.359H102.406C102.406 142.174 104.811 148.526 109.691 153.308L111.091 151.879ZM104.406 134.359V133.047H102.406V134.359H104.406ZM104.406 133.047C104.406 128.084 105.365 123.692 107.257 119.848L105.462 118.965C103.417 123.12 102.406 127.822 102.406 133.047H104.406ZM107.258 119.845C109.148 115.975 111.801 113.032 115.218 110.982L114.189 109.268C110.417 111.53 107.508 114.775 105.461 118.967L107.258 119.845ZM115.22 110.981C118.675 108.896 122.618 107.844 127.078 107.844V105.844C122.288 105.844 117.982 106.979 114.186 109.269L115.22 110.981ZM127.078 107.844C133.787 107.844 138.951 109.949 142.697 114.078L144.178 112.734C139.986 108.114 134.244 105.844 127.078 105.844V107.844ZM142.699 114.081C146.479 118.215 148.438 124.144 148.438 132.016H150.438C150.438 123.824 148.396 117.348 144.176 112.731L142.699 114.081ZM148.438 132.016V137.547H150.438V132.016H148.438ZM149.438 136.547H117.141V138.547H149.438V136.547ZM116.149 137.678C116.613 141.192 118.02 144.075 120.403 146.254L121.753 144.778C119.761 142.957 118.543 140.527 118.132 137.416L116.149 137.678ZM120.409 146.258C122.835 148.446 125.881 149.516 129.469 149.516V147.516C126.307 147.516 123.759 146.586 121.748 144.773L120.409 146.258ZM129.469 149.516C134.964 149.516 139.347 147.506 142.493 143.457L140.913 142.23C138.184 145.744 134.411 147.516 129.469 147.516V149.516ZM140.957 143.51L147.614 150.963L149.105 149.631L142.449 142.178L140.957 143.51ZM147.543 149.72C145.62 152.441 143.011 154.583 139.685 156.141L140.534 157.952C144.145 156.261 147.036 153.903 149.176 150.874L147.543 149.72ZM139.692 156.138C136.367 157.666 132.668 158.438 128.578 158.438V160.438C132.926 160.438 136.914 159.616 140.527 157.956L139.692 156.138ZM127.031 116.812C124.093 116.812 121.631 117.816 119.737 119.85L121.201 121.213C122.682 119.622 124.595 118.812 127.031 118.812V116.812ZM119.731 119.857C117.894 121.866 116.777 124.675 116.291 128.175L118.272 128.45C118.723 125.2 119.731 122.821 121.207 121.206L119.731 119.857ZM117.281 129.312H136.125V127.312H117.281V129.312ZM137.125 128.312V127.234H135.125V128.312H137.125ZM137.125 127.214C137.059 124.047 136.196 121.463 134.408 119.604L132.967 120.99C134.304 122.381 135.066 124.421 135.125 127.255L137.125 127.214ZM134.415 119.611C132.617 117.704 130.105 116.812 127.031 116.812V118.812C129.708 118.812 131.633 119.577 132.96 120.983L134.415 119.611ZM176.484 122.922L175.609 123.405L176.475 124.976L177.356 123.413L176.484 122.922ZM185.016 107.781V106.781H184.431L184.144 107.29L185.016 107.781ZM199.5 107.781L200.365 108.284L201.238 106.781H199.5V107.781ZM185.062 132.625L184.198 132.123L183.906 132.625L184.198 133.128L185.062 132.625ZM200.109 158.5V159.5H201.848L200.974 157.997L200.109 158.5ZM185.578 158.5L184.708 158.994L184.996 159.5H185.578V158.5ZM176.531 142.562L177.401 142.069L176.529 140.533L175.66 142.071L176.531 142.562ZM167.531 158.5V159.5H168.115L168.402 158.992L167.531 158.5ZM152.953 158.5L152.089 157.997L151.215 159.5H152.953V158.5ZM168 132.625L168.864 133.128L169.156 132.626L168.865 132.124L168 132.625ZM153.609 107.781V106.781H151.874L152.744 108.282L153.609 107.781ZM168.141 107.781L169.016 107.299L168.731 106.781H168.141V107.781ZM177.356 123.413L185.887 108.272L184.144 107.29L175.613 122.431L177.356 123.413ZM185.016 108.781H199.5V106.781H185.016V108.781ZM198.635 107.279L184.198 132.123L185.927 133.127L200.365 108.284L198.635 107.279ZM184.198 133.128L199.245 159.003L200.974 157.997L185.927 132.122L184.198 133.128ZM200.109 157.5H185.578V159.5H200.109V157.5ZM186.448 158.006L177.401 142.069L175.662 143.056L184.708 158.994L186.448 158.006ZM175.66 142.071L166.66 158.008L168.402 158.992L177.402 143.054L175.66 142.071ZM167.531 157.5H152.953V159.5H167.531V157.5ZM153.818 159.003L168.864 133.128L167.136 132.122L152.089 157.997L153.818 159.003ZM168.865 132.124L154.475 107.28L152.744 108.282L167.135 133.126L168.865 132.124ZM153.609 108.781H168.141V106.781H153.609V108.781ZM167.265 108.264L175.609 123.405L177.36 122.439L169.016 107.299L167.265 108.264ZM232.172 133.516L233.062 133.06L232.783 132.516H232.172V133.516ZM220.969 133.516V132.516H219.969V133.516H220.969ZM220.969 158.5V159.5H221.969V158.5H220.969ZM206.906 158.5H205.906V159.5H206.906V158.5ZM206.906 90.25V89.25H205.906V90.25H206.906ZM254.438 122.547L253.599 122.002L253.598 122.004L254.438 122.547ZM245.297 129.953L244.886 129.041L243.914 129.479L244.413 130.421L245.297 129.953ZM260.062 157.844H261.062V157.595L260.946 157.376L260.062 157.844ZM260.062 158.5V159.5H261.062V158.5H260.062ZM244.969 158.5L244.079 158.956L244.357 159.5H244.969V158.5ZM220.969 122.125H219.969V123.125H220.969V122.125ZM240.516 119.453L241.192 120.189L241.199 120.183L240.516 119.453ZM240.656 104.406L239.943 105.107L239.949 105.113L240.656 104.406ZM220.969 101.641V100.641H219.969V101.641H220.969ZM232.172 132.516H220.969V134.516H232.172V132.516ZM219.969 133.516V158.5H221.969V133.516H219.969ZM220.969 157.5H206.906V159.5H220.969V157.5ZM207.906 158.5V90.25H205.906V158.5H207.906ZM206.906 91.25H232.266V89.25H206.906V91.25ZM232.266 91.25C240.193 91.25 246.153 93.0178 250.287 96.4134L251.557 94.8679C246.94 91.0759 240.463 89.25 232.266 89.25V91.25ZM250.287 96.4134C254.393 99.7858 256.484 104.559 256.484 110.875H258.484C258.484 104.066 256.201 98.683 251.557 94.8679L250.287 96.4134ZM256.484 110.875C256.484 115.386 255.501 119.075 253.599 122.002L255.276 123.092C257.436 119.768 258.484 115.677 258.484 110.875H256.484ZM253.598 122.004C251.723 124.904 248.843 127.259 244.886 129.041L245.708 130.865C249.938 128.96 253.152 126.378 255.277 123.09L253.598 122.004ZM244.413 130.421L259.179 158.312L260.946 157.376L246.181 129.485L244.413 130.421ZM259.062 157.844V158.5H261.062V157.844H259.062ZM260.062 157.5H244.969V159.5H260.062V157.5ZM245.859 158.044L233.062 133.06L231.282 133.972L244.079 158.956L245.859 158.044ZM220.969 123.125H232.312V121.125H220.969V123.125ZM232.312 123.125C236.007 123.125 239.015 122.191 241.192 120.189L239.839 118.717C238.141 120.278 235.68 121.125 232.312 121.125V123.125ZM241.199 120.183C243.377 118.146 244.422 115.376 244.422 112H242.422C242.422 114.936 241.53 117.135 239.832 118.723L241.199 120.183ZM244.422 112C244.422 108.582 243.437 105.772 241.363 103.699L239.949 105.113C241.563 106.728 242.422 108.981 242.422 112H244.422ZM241.369 103.705C239.297 101.597 236.191 100.641 232.266 100.641V102.641C235.903 102.641 238.391 103.528 239.943 105.107L241.369 103.705ZM232.266 100.641H220.969V102.641H232.266V100.641ZM219.969 101.641V122.125H221.969V101.641H219.969ZM272.484 152.594L271.784 153.308L271.787 153.31L272.484 152.594ZM268.453 119.406L269.35 119.848L269.352 119.845L268.453 119.406ZM276.797 110.125L277.311 110.982L277.314 110.981L276.797 110.125ZM305.531 113.406L304.791 114.078L304.793 114.081L305.531 113.406ZM311.531 137.547V138.547H312.531V137.547H311.531ZM279.234 137.547V136.547H278.094L278.243 137.678L279.234 137.547ZM283.172 145.516L282.497 146.254L282.502 146.258L283.172 145.516ZM303.797 142.844L304.543 142.178L303.743 141.283L303.007 142.23L303.797 142.844ZM310.453 150.297L311.27 150.874L311.729 150.224L311.199 149.631L310.453 150.297ZM302.203 157.047L302.621 157.956L302.627 157.952L302.203 157.047ZM282.562 120.531L281.831 119.85L281.824 119.857L282.562 120.531ZM279.375 128.312L278.385 128.175L278.227 129.312H279.375V128.312ZM298.219 128.312V129.312H299.219V128.312H298.219ZM298.219 127.234H299.219V127.224L299.219 127.214L298.219 127.234ZM295.781 120.297L295.054 120.983L295.06 120.99L295.781 120.297ZM290.672 158.438C283.456 158.438 277.657 156.233 273.182 151.877L271.787 153.31C276.687 158.08 283.013 160.438 290.672 160.438V158.438ZM273.184 151.879C268.752 147.536 266.5 141.732 266.5 134.359H264.5C264.5 142.174 266.905 148.526 271.784 153.308L273.184 151.879ZM266.5 134.359V133.047H264.5V134.359H266.5ZM266.5 133.047C266.5 128.084 267.458 123.692 269.35 119.848L267.556 118.965C265.51 123.12 264.5 127.822 264.5 133.047H266.5ZM269.352 119.845C271.242 115.975 273.895 113.032 277.311 110.982L276.282 109.268C272.511 111.53 269.602 114.775 267.555 118.967L269.352 119.845ZM277.314 110.981C280.768 108.896 284.712 107.844 289.172 107.844V105.844C284.382 105.844 280.075 106.979 276.28 109.269L277.314 110.981ZM289.172 107.844C295.881 107.844 301.045 109.949 304.791 114.078L306.272 112.734C302.08 108.114 296.338 105.844 289.172 105.844V107.844ZM304.793 114.081C308.573 118.215 310.531 124.144 310.531 132.016H312.531C312.531 123.824 310.49 117.348 306.269 112.731L304.793 114.081ZM310.531 132.016V137.547H312.531V132.016H310.531ZM311.531 136.547H279.234V138.547H311.531V136.547ZM278.243 137.678C278.707 141.192 280.114 144.075 282.497 146.254L283.847 144.778C281.855 142.957 280.637 140.527 280.226 137.416L278.243 137.678ZM282.502 146.258C284.929 148.446 287.975 149.516 291.562 149.516V147.516C288.4 147.516 285.852 146.586 283.841 144.773L282.502 146.258ZM291.562 149.516C297.058 149.516 301.441 147.506 304.587 143.457L303.007 142.23C300.278 145.744 296.504 147.516 291.562 147.516V149.516ZM303.051 143.51L309.707 150.963L311.199 149.631L304.543 142.178L303.051 143.51ZM309.636 149.72C307.714 152.441 305.105 154.583 301.779 156.141L302.627 157.952C306.239 156.261 309.13 153.903 311.27 150.874L309.636 149.72ZM301.786 156.138C298.461 157.666 294.762 158.438 290.672 158.438V160.438C295.019 160.438 299.008 159.616 302.621 157.956L301.786 156.138ZM289.125 116.812C286.186 116.812 283.725 117.816 281.831 119.85L283.294 121.213C284.775 119.622 286.689 118.812 289.125 118.812V116.812ZM281.824 119.857C279.988 121.866 278.871 124.675 278.385 128.175L280.365 128.45C280.817 125.2 281.825 122.821 283.301 121.206L281.824 119.857ZM279.375 129.312H298.219V127.312H279.375V129.312ZM299.219 128.312V127.234H297.219V128.312H299.219ZM299.219 127.214C299.153 124.047 298.29 121.463 296.502 119.604L295.06 120.99C296.398 122.381 297.16 124.421 297.219 127.255L299.219 127.214ZM296.509 119.611C294.71 117.704 292.198 116.812 289.125 116.812V118.812C291.802 118.812 293.727 119.577 295.054 120.983L296.509 119.611ZM331.969 107.781L332.966 107.707L332.897 106.781H331.969V107.781ZM332.391 113.453L331.393 113.527L331.58 116.03L333.166 114.085L332.391 113.453ZM360.422 114.578L359.518 115.006L360.259 116.573L361.245 115.147L360.422 114.578ZM387.938 111.672L387.17 112.313L387.173 112.316L387.938 111.672ZM391.969 158.5V159.5H392.969V158.5H391.969ZM378.375 158.5H377.375V159.5H378.375V158.5ZM376.688 119.875L375.921 120.517L375.928 120.526L376.688 119.875ZM362.297 123.672L361.369 123.298L361.297 123.478L361.297 123.673L362.297 123.672ZM362.344 158.5V159.5H363.345L363.344 158.499L362.344 158.5ZM348.797 158.5H347.797V159.5H348.797V158.5ZM332.812 122.641L331.932 122.166L331.812 122.388V122.641H332.812ZM332.812 158.5V159.5H333.812V158.5H332.812ZM319.266 158.5H318.266V159.5H319.266V158.5ZM319.266 107.781V106.781H318.266V107.781H319.266ZM330.972 107.855L331.393 113.527L333.388 113.379L332.966 107.707L330.972 107.855ZM333.166 114.085C336.553 109.932 341.118 107.844 346.969 107.844V105.844C340.57 105.844 335.416 108.162 331.616 112.821L333.166 114.085ZM346.969 107.844C350.105 107.844 352.676 108.462 354.732 109.644C356.779 110.821 358.377 112.592 359.518 115.006L361.326 114.151C360.029 111.408 358.166 109.312 355.729 107.91C353.3 106.514 350.364 105.844 346.969 105.844V107.844ZM361.245 115.147C364.609 110.277 369.371 107.844 375.656 107.844V105.844C368.754 105.844 363.36 108.567 359.599 114.01L361.245 115.147ZM375.656 107.844C380.959 107.844 384.728 109.388 387.17 112.313L388.705 111.031C385.772 107.518 381.354 105.844 375.656 105.844V107.844ZM387.173 112.316C389.645 115.248 390.969 119.785 390.969 126.109H392.969C392.969 119.558 391.605 114.471 388.702 111.027L387.173 112.316ZM390.969 126.109V158.5H392.969V126.109H390.969ZM391.969 157.5H378.375V159.5H391.969V157.5ZM379.375 158.5V126.156H377.375V158.5H379.375ZM379.375 126.156C379.375 123.189 378.801 120.805 377.447 119.224L375.928 120.526C376.824 121.57 377.375 123.373 377.375 126.156H379.375ZM377.454 119.233C376.047 117.553 373.693 116.859 370.734 116.859V118.859C373.463 118.859 375.078 119.51 375.921 120.517L377.454 119.233ZM370.734 116.859C368.54 116.859 366.614 117.385 365.011 118.489C363.41 119.592 362.208 121.219 361.369 123.298L363.224 124.046C363.949 122.249 364.934 120.971 366.145 120.136C367.355 119.303 368.867 118.859 370.734 118.859V116.859ZM361.297 123.673L361.344 158.501L363.344 158.499L363.297 123.671L361.297 123.673ZM362.344 157.5H348.797V159.5H362.344V157.5ZM349.797 158.5V126.203H347.797V158.5H349.797ZM349.797 126.203C349.797 123.175 349.208 120.751 347.813 119.167L346.312 120.489C347.229 121.53 347.797 123.356 347.797 126.203H349.797ZM347.813 119.167C346.379 117.539 344.058 116.859 341.156 116.859V118.859C343.817 118.859 345.433 119.492 346.312 120.489L347.813 119.167ZM341.156 116.859C339.095 116.859 337.26 117.288 335.69 118.187C334.118 119.088 332.868 120.43 331.932 122.166L333.693 123.115C334.475 121.664 335.476 120.615 336.685 119.922C337.896 119.228 339.374 118.859 341.156 118.859V116.859ZM331.812 122.641V158.5H333.812V122.641H331.812ZM332.812 157.5H319.266V159.5H332.812V157.5ZM320.266 158.5V107.781H318.266V158.5H320.266ZM319.266 108.781H331.969V106.781H319.266V108.781Z" fill="black"/>
<path d="M120.569 50.997C120.496 50.9169 120.418 50.8414 120.336 50.7699C120.56 50.9221 120.761 51.0829 120.932 51.2682C121.266 51.63 121.5 52.0998 121.5 52.8324C121.5 53.9363 120.732 54.9338 119.823 55.7124C118.934 56.4747 118.022 56.9314 117.959 56.9621L117.959 56.9621C117.927 56.9779 117.876 56.9927 117.813 56.9979C117.816 56.9952 117.818 56.9923 117.82 56.9895C117.842 56.959 117.868 56.9252 117.896 56.8861C117.971 56.7831 118.069 56.644 118.137 56.4899C118.305 56.1071 118.442 55.571 118.442 54.8429C118.442 54.1814 118.092 53.6853 117.659 53.2992C117.639 53.281 117.618 53.263 117.597 53.245C117.781 53.3741 117.951 53.5063 118.101 53.6454C118.505 54.0203 118.717 54.3971 118.717 54.843C118.717 55.1815 118.923 55.447 119.174 55.568C119.435 55.6933 119.801 55.6842 120.061 55.4031C120.673 54.739 121.225 53.8606 121.225 52.8324C121.225 52.033 120.986 51.4534 120.569 50.997ZM117.579 56.962C117.58 56.962 117.58 56.9621 117.58 56.9621L117.288 57.3685L117.579 56.962ZM114.692 51.3171C114.762 51.3843 114.835 51.4498 114.911 51.5135C114.684 51.3514 114.472 51.1814 114.284 50.9979C113.799 50.5251 113.5 49.9929 113.5 49.3052C113.5 47.6668 114.325 46.6182 115.195 45.9552C116.078 45.2832 116.983 45.0297 117.035 45.0157L117.035 45.0156C117.114 44.9944 117.2 44.9964 117.268 45.0118C116.942 46.6688 117.098 47.8011 117.59 48.6331C117.797 48.9822 118.055 49.2625 118.332 49.4973C118.222 49.423 118.115 49.3458 118.012 49.2638C117.298 48.6971 116.374 48.1082 115.586 47.9096C115.199 47.812 114.729 47.7795 114.342 48.0313C113.927 48.3003 113.775 48.777 113.775 49.3052C113.775 50.1654 114.161 50.8086 114.692 51.3171Z" fill="#F3F2F2" stroke="white"/>
<rect x="111.5" y="57" width="12" height="15" fill="#288E17" stroke="black"/>
<path d="M77.5309 74.6894L65.7583 89.5368L55.9882 89.5368L72.6952 66.8146L89.6767 43.7191L167.515 107L154.599 107L115.14 75.3063L115.137 75.3046L92.738 57.1119L92.3536 56.7997L92.0377 57.181L77.5377 74.681L77.5376 74.6809L77.5309 74.6894Z" fill="#288E17" stroke="black"/>
</svg>
